<?xml version="1.0" encoding="utf-8"?>
<!-- Generator: Adobe Illustrator 25.0.1, SVG Export Plug-In . SVG Version: 6.00 Build 0)  -->
<svg version="1.1" xmlns="http://www.w3.org/2000/svg" xmlns:xlink="http://www.w3.org/1999/xlink" x="0px" y="0px"
	 viewBox="0 0 583 502" style="enable-background:new 0 0 583 502;" xml:space="preserve">
<style type="text/css">
	.st0{fill:#22242B;}
	.st1{enable-background:new    ;}
	.st2{fill:#FFFFFF;}
	.st3{fill:none;stroke:#FFFFFF;stroke-width:3;stroke-miterlimit:10;}
	.st4{fill:#21232B;}
	.st5{fill:#75C9F9;}
	.st6{fill:none;stroke:#FFFFFF;stroke-width:5;stroke-miterlimit:10;}
	.st7{fill:none;stroke:#FFFFFF;stroke-width:5;stroke-linecap:round;stroke-miterlimit:10;}
	.st8{fill:#606060;}
	.st9{fill:#202828;stroke:#FFFFFF;stroke-width:3;stroke-linecap:round;stroke-linejoin:round;stroke-miterlimit:10;}
	.st10{fill:#21232B;stroke:#2BD2F9;stroke-width:2;stroke-miterlimit:10;}
	.st11{fill:#76CBF9;}
	.st12{fill:none;stroke:#7AC7F0;stroke-width:2;stroke-linecap:round;stroke-linejoin:round;stroke-miterlimit:10;}
	.st13{fill:none;stroke:#7AC7F0;stroke-width:2;stroke-miterlimit:10;}
	.st14{fill:none;stroke:#FFFFFF;stroke-width:3;stroke-linecap:round;stroke-linejoin:round;stroke-miterlimit:10;}
	.st15{fill:#0AEDE6;}
	.st16{opacity:0.2;fill:#FFFFFF;}
	.st17{fill:none;stroke:#FFFFFF;stroke-width:4;stroke-miterlimit:10;}
	.st18{fill:none;stroke:#FFFFFF;stroke-width:2;stroke-miterlimit:10;}
	.st19{fill:#22242B;stroke:#FFFFFF;stroke-width:3;stroke-miterlimit:10;}
	.st20{opacity:0.25;fill:#75C9F9;}
	.st21{fill:none;stroke:#7AC7F0;stroke-width:5;stroke-linecap:round;stroke-linejoin:round;stroke-miterlimit:10;}
	.st22{clip-path:url(#SVGID_2_);}
	.st23{clip-path:url(#SVGID_2_);fill:#22242B;}
	.st24{clip-path:url(#SVGID_2_);fill:none;stroke:#FFFFFF;stroke-width:4;stroke-miterlimit:10;}
	.st25{clip-path:url(#SVGID_2_);fill:#22242B;stroke:#FFFFFF;stroke-width:3;stroke-miterlimit:10;}
</style>
<g id="Слой_11">
</g>
<g id="Basket">
</g>
<g id="New_Collection">
</g>
<g id="Menu">
</g>
<g id="Market">
</g>
<g id="Login">
	<g id="_x5B_YOUR_IMAGE_HERE_x5D_">
	</g>
</g>
<g id="Слой_8">
	<g id="_x5B_YOUR_TEXT_HERE_x5D__1_">
	</g>
</g>
<g id="Слой_10">
</g>
<g id="Слой_16">
</g>
<g id="Слой_17">
</g>
<g id="Слой_14">
</g>
<g id="Слой_15">
</g>
<g id="Слой_19">
</g>
<g id="Слой_13">
</g>
<g id="Слой_20">
</g>
<g id="Слой_12">
</g>
<g id="Слой_21">
</g>
<g id="Слой_22">
</g>
<g id="Слой_23">
</g>
<g id="Слой_24">
</g>
<g id="Слой_25">
	<g>
		<path class="st2" d="M412.5,457.9h110.1c3.5,0,6.4-2.8,6.4-6.4v-8.9v-6.5V337l-21.8-10.9v103.6c0,3.5-2.8,6.4-6.4,6.4h-77.5
			L412.5,457.9z"/>
		<path class="st17" d="M492.7,442H100.3c-10.6,0-19.3-8.6-19.3-19.3V84.3C81,73.6,89.6,65,100.3,65h392.5
			c10.6,0,19.3,8.6,19.3,19.3v338.5C512,433.4,503.4,442,492.7,442z"/>
		<path class="st2" d="M179.5,50.2H69.4c-3.5,0-6.4,2.8-6.4,6.4v8.9V72v99.1L84.8,182V78.4c0-3.5,2.8-6.4,6.4-6.4h77.5L179.5,50.2z"
			/>
		<g>
			<path class="st2" d="M174.2,210.7h-29.9l-10-3.7v-6.2h39.9l5,5L174.2,210.7z M144.3,213.2v23.7l-7.5,7.5l-2.5-2.5v-32.4
				L144.3,213.2z M134.3,281.7v-32.4l2.5-2.5l7.5,7.5V278L134.3,281.7z M179.1,285.4l-5,5h-39.8v-6.2l10-3.7h29.8L179.1,285.4z
				 M176.7,236.8v-26.2l3.7-3.7l6.2,6.2v28.7l-2.5,2.5L176.7,236.8z M184.2,246.8l2.5,2.5V278l-6.2,6.2l-3.7-3.7v-26.2L184.2,246.8z
				"/>
			<path class="st2" d="M209.8,213.2v23.7l-7.5,7.5l-2.5-2.5v-32.4L209.8,213.2z M199.8,281.7v-32.4l2.5-2.5l7.5,7.5V278
				L199.8,281.7z M247.2,290.4H206c-3.3-0.8-5.4-2.9-6.2-6.2l10-3.7h33.7L247.2,290.4z M243.4,210.7h-33.5l-10-3.7
				c0.8-3.3,2.9-5.4,6.2-6.2h41L243.4,210.7z M242.2,240.6l5,5l-5,5h-32.4l-5-5l5-5H242.2z"/>
			<path class="st2" d="M262.8,245.6l-2.5-2.5v-34.9c0.8-3.3,2.9-5.4,6.2-6.2l3.7,10v26.2L262.8,245.6z M270.3,254.3v26.2l-3.7,10
				c-3.3-0.8-5.4-2.9-6.2-6.2v-34.9l2.5-2.5L270.3,254.3z M300.2,238.1h-8.7l-18.7-18.7v-7.5h7.5l19.9,19.9V238.1z M302.7,238.1
				v-26.2l3.7-10c3.3,0.8,5.4,2.9,6.2,6.2v34.9l-2.5,2.5L302.7,238.1z M310.2,246.8l2.5,2.5v34.9c-0.8,3.3-2.9,5.4-6.2,6.2l-3.7-10
				v-26.2L310.2,246.8z"/>
			<path class="st2" d="M325.8,236.8v-26.2l3.7-10c3.3,0.8,5.4,2.9,6.2,6.2v34.9l-2.5,2.5L325.8,236.8z M333.3,245.6l2.5,2.5V283
				c-0.8,3.3-2.9,5.4-6.2,6.2l-3.7-10V253L333.3,245.6z"/>
			<path class="st2" d="M358.9,213.2v23.7l-7.5,7.5l-2.5-2.5v-32.4L358.9,213.2z M348.9,281.7v-32.4l2.5-2.5l7.5,7.5V278
				L348.9,281.7z M396.3,290.4h-41.1c-3.3-0.8-5.4-2.9-6.2-6.2l10-3.7h33.7L396.3,290.4z M392.6,210.7H359l-10-3.7
				c0.8-3.3,2.9-5.4,6.2-6.2h41L392.6,210.7z M391.3,240.6l5,5l-5,5h-32.4l-5-5l5-5H391.3z"/>
			<path class="st2" d="M449.3,210.7h-29.9l-10-3.7v-6.2h39.9l5,5L449.3,210.7z M419.4,213.2v23.7l-7.5,7.5l-2.5-2.5v-32.4
				L419.4,213.2z M409.5,281.7v-32.4l2.5-2.5l7.5,7.5V278L409.5,281.7z M454.2,285.4l-5,5h-39.8v-6.2l10-3.7h29.8L454.2,285.4z
				 M451.8,236.8v-26.2l3.7-3.7l6.2,6.2v28.7l-2.5,2.5L451.8,236.8z M459.3,246.8l2.5,2.5V278l-6.2,6.2l-3.7-3.7v-26.2L459.3,246.8z
				"/>
		</g>
		<path class="st16" d="M491.1,430.6H101.9c-6.5,0-11.8-5.3-11.8-11.8V88.2c0-6.5,5.3-11.8,11.8-11.8h389.2
			c6.5,0,11.8,5.3,11.8,11.8v330.6C503,425.3,497.6,430.6,491.1,430.6z"/>
	</g>
</g>
<g id="Слой_26">
</g>
<g id="Слой_18">
</g>
</svg>
