<?xml version="1.0" encoding="utf-8"?>
<!-- Generator: Adobe Illustrator 25.0.1, SVG Export Plug-In . SVG Version: 6.00 Build 0)  -->
<svg version="1.1" id="Слой_1" xmlns="http://www.w3.org/2000/svg" xmlns:xlink="http://www.w3.org/1999/xlink" x="0px" y="0px"
	 viewBox="0 0 1106.5 540.3" style="enable-background:new 0 0 1106.5 540.3;" xml:space="preserve">
<style type="text/css">
	.st0{fill:#3A3A3A;}
	.st1{clip-path:url(#SVGID_2_);}
	.st2{fill:#AFA6A0;}
	.st3{fill:#218400;}
	.st4{fill:#998D85;}
	.st5{fill:#124705;}
	.st6{fill:none;}
	.st7{fill:#BA955A;}
	.st8{fill:#FFFFFF;}
	.st9{fill:#38DB09;}
	.st10{display:none;fill:#38DB09;}
	.st11{enable-background:new    ;}
	.st12{display:none;fill:#FFFFFF;}
	.st13{fill:#FFA452;}
	.st14{clip-path:url(#SVGID_4_);}
	.st15{fill:#FFC28F;}
	.st16{opacity:0.26;fill:#8E7C6C;enable-background:new    ;}
	.st17{fill:#A5A5A5;}
	.st18{fill:#595959;}
	.st19{fill:#FFB600;}
	.st20{clip-path:url(#SVGID_6_);}
	.st21{fill:#D1AA8F;}
	.st22{fill:#626362;}
	.st23{fill:#D3D3D3;}
</style>
<g>
	<g class="st11">
		<path class="st8" d="M196,270c-31.1,0-46.6-10.4-46.6-31.2v-49.3c0-19.7,15.3-29.6,45.8-29.6H217c5.4,0,8.1,2.2,8.1,6.5
			c0,4.3-2.7,6.5-8.1,6.5h-21.5c-19.3,0-28.9,5.6-28.9,16.9v48.5c0,12.4,10.1,18.6,30.2,18.6h34.3c20.1,0,30.2-6.2,30.2-18.6v-30
			c0-4.5,2.9-6.7,8.6-6.7s8.6,2.2,8.6,6.7v30.5c0,20.8-15.5,31.2-46.6,31.2H196z"/>
		<path class="st8" d="M309.3,165.8c0-4.5,3-6.7,8.9-6.7c5.5,0,8.3,2.2,8.3,6.7v98.3c0,4.5-2.9,6.7-8.7,6.7c-5.6,0-8.4-2.2-8.4-6.7
			V165.8z"/>
		<path class="st8" d="M366.7,159.1c1.7,0,3.2,0.3,4.5,0.9c1.3,0.6,2.6,1.5,4,2.6l95.9,84.6v-81.6c0-4.3,2.9-6.5,8.6-6.5
			c5.7,0,8.6,2.2,8.6,6.5v98.4c0,4.5-3,6.7-9.1,6.7c-1.8,0-3.3-0.3-4.5-1c-1.2-0.6-2.5-1.5-3.9-2.7L375,182.5v81.6
			c0,4.5-2.9,6.7-8.7,6.7c-5.6,0-8.4-2.2-8.4-6.7V166C357.8,161.4,360.8,159.1,366.7,159.1z"/>
		<path class="st8" d="M565.9,270c-31.1,0-46.6-10.4-46.6-31.2v-49.3c0-19.7,15.3-29.6,45.8-29.6h21.8c5.4,0,8.1,2.2,8.1,6.5
			c0,4.3-2.7,6.5-8.1,6.5h-21.5c-19.3,0-28.9,5.6-28.9,16.9v48.5c0,12.4,10.1,18.6,30.2,18.6h34.3c20.1,0,30.2-6.2,30.2-18.6v-30
			c0-4.5,2.9-6.7,8.6-6.7s8.6,2.2,8.6,6.7v30.5c0,20.8-15.5,31.2-46.6,31.2H565.9z"/>
		<path class="st8" d="M725.4,270c-31.1,0-46.6-10.2-46.6-30.5V190c0-20,15.3-30,45.8-30h22.7c5.3,0,7.9,2.2,7.9,6.5
			c0,4.3-2.7,6.5-7.9,6.5h-22.4c-19.3,0-28.9,5.8-28.9,17.3v18h94.8c5.1,0,7.6,2.1,7.6,6.2s-2.5,6.2-7.6,6.2H696V239
			c0,12,10.1,18,30.2,18h64.5c5.4,0,8.1,2.2,8.1,6.5c0,4.3-2.7,6.5-8.1,6.5H725.4z"/>
		<path class="st8" d="M844.2,226.9v37.2c0,4.5-2.9,6.7-8.7,6.7c-5.6,0-8.4-2.2-8.4-6.7v-98.6c0-3.7,2.4-5.6,7.3-5.6H909
			c33,0,49.4,9,49.4,27v11.8c0,17.7-16.5,26.5-49.4,26.5h-38l73.8,32.4c3.2,1.4,4.8,3.4,4.8,6.2c0,2.1-0.8,3.8-2.3,5
			c-1.5,1.2-3.7,1.8-6.4,1.8c-1.2,0-2.1-0.1-2.9-0.3c-0.8-0.2-1.8-0.6-3.1-1.3L844.2,226.9z M844.2,213.2h65.3
			c21.2,0,31.8-4.8,31.8-14.5v-11.4c0-9.5-10.5-14.3-31.6-14.3h-64.2c-0.8,0-1.3,0.4-1.3,1.1V213.2z"/>
	</g>
	<g>
		<g>
			<path class="st8" d="M204.5,368.9c0,7.9-7.5,11.8-22.6,11.8h-30.1c-2.5,0-3.8-1-3.8-3c0-2,1.3-3,3.8-3h30.1
				c9.6,0,14.5-2.1,14.5-6.2v-5.3c0-4-4.6-6-13.7-6h-14c-13.5,0-20.3-3.7-20.3-11v-5.4c0-7.6,6.9-11.4,20.8-11.4h8.3
				c2.5,0,3.7,1,3.7,3c0,2-1.2,3-3.7,3h-8.2c-8.6,0-12.8,1.9-12.8,5.6v4.6c0,3.7,4.1,5.5,12.2,5.5h13.5c14.9,0,22.4,3.9,22.4,11.7
				V368.9z"/>
			<path class="st8" d="M404.7,349.9c0,9.5-7.7,14.3-23.1,14.3h-30.3V378c0,2.1-1.4,3.1-4.1,3.1c-2.6,0-3.9-1-3.9-3.1v-46
				c0-1.7,1.1-2.6,3.4-2.6h34.9c15.4,0,23.1,4.8,23.1,14.3V349.9z M351.3,358.1h30.5c9.9,0,14.8-2.8,14.8-8.5v-5.7
				c0-5.6-4.9-8.5-14.8-8.5h-30c-0.4,0-0.6,0.2-0.6,0.5V358.1z"/>
			<path class="st8" d="M543.5,332.1c0-2.1,1.4-3.1,4.2-3.1c2.6,0,3.9,1,3.9,3.1V378c0,2.1-1.4,3.1-4.1,3.1c-2.6,0-3.9-1-3.9-3.1
				V332.1z"/>
			<path class="st8" d="M696.4,329c0.8,0,1.5,0.1,2.1,0.4c0.6,0.3,1.2,0.7,1.9,1.2l44.8,39.5v-38.1c0-2,1.3-3,4-3c2.7,0,4,1,4,3V378
				c0,2.1-1.4,3.1-4.2,3.1c-0.8,0-1.5-0.1-2.1-0.4c-0.6-0.3-1.2-0.7-1.8-1.3l-44.7-39.5V378c0,2.1-1.4,3.1-4.1,3.1
				c-2.6,0-3.9-1-3.9-3.1v-45.8C692.3,330.1,693.7,329,696.4,329z"/>
			<path class="st8" d="M915.6,380.7c-14.5,0-21.7-4.8-21.7-14.2v-23.1c0-9.4,7.1-14,21.4-14h10.6c2.5,0,3.7,1,3.7,3
				c0,2-1.2,3-3.7,3h-10.5c-9,0-13.5,2.7-13.5,8.1v8.4h44.2c2.4,0,3.6,1,3.6,2.9c0,1.9-1.2,2.9-3.6,2.9h-44.2v8.5
				c0,5.6,4.7,8.4,14.1,8.4h30.1c2.5,0,3.8,1,3.8,3c0,2-1.3,3-3.8,3H915.6z"/>
		</g>
	</g>
</g>
</svg>
