<?xml version="1.0" encoding="utf-8"?>
<!-- Generator: Adobe Illustrator 25.0.1, SVG Export Plug-In . SVG Version: 6.00 Build 0)  -->
<svg version="1.1" xmlns="http://www.w3.org/2000/svg" xmlns:xlink="http://www.w3.org/1999/xlink" x="0px" y="0px"
	 viewBox="0 0 583 502" style="enable-background:new 0 0 583 502;" xml:space="preserve">
<style type="text/css">
	.st0{fill:#22242B;}
	.st1{enable-background:new    ;}
	.st2{fill:#FFFFFF;}
	.st3{fill:none;stroke:#FFFFFF;stroke-width:3;stroke-miterlimit:10;}
	.st4{fill:#21232B;}
	.st5{fill:#75C9F9;}
	.st6{fill:none;stroke:#FFFFFF;stroke-width:5;stroke-miterlimit:10;}
	.st7{fill:none;stroke:#FFFFFF;stroke-width:5;stroke-linecap:round;stroke-miterlimit:10;}
	.st8{fill:#606060;}
	.st9{fill:#202828;stroke:#FFFFFF;stroke-width:3;stroke-linecap:round;stroke-linejoin:round;stroke-miterlimit:10;}
	.st10{fill:#21232B;stroke:#2BD2F9;stroke-width:2;stroke-miterlimit:10;}
	.st11{display:none;}
	.st12{display:inline;}
	.st13{fill:#76CBF9;}
	.st14{fill:none;stroke:#7AC7F0;stroke-width:2;stroke-linecap:round;stroke-linejoin:round;stroke-miterlimit:10;}
	.st15{fill:none;stroke:#7AC7F0;stroke-width:2;stroke-miterlimit:10;}
	.st16{fill:none;stroke:#FFFFFF;stroke-width:3;stroke-linecap:round;stroke-linejoin:round;stroke-miterlimit:10;}
	.st17{fill:#0AEDE6;}
	.st18{opacity:0.2;fill:#FFFFFF;}
	.st19{fill:none;stroke:#FFFFFF;stroke-width:4;stroke-miterlimit:10;}
	.st20{fill:none;stroke:#FFFFFF;stroke-width:2;stroke-miterlimit:10;}
	.st21{fill:#22242B;stroke:#FFFFFF;stroke-width:3;stroke-miterlimit:10;}
	.st22{opacity:0.25;fill:#75C9F9;}
	.st23{fill:none;stroke:#7AC7F0;stroke-width:5;stroke-linecap:round;stroke-linejoin:round;stroke-miterlimit:10;}
</style>
<g id="Слой_11">
</g>
<g id="Basket">
</g>
<g id="New_Collection">
</g>
<g id="Menu">
</g>
<g id="Market">
</g>
<g id="Login">
	<g id="_x5B_YOUR_IMAGE_HERE_x5D_">
	</g>
</g>
<g id="Слой_8">
	<g id="_x5B_YOUR_TEXT_HERE_x5D__1_">
	</g>
</g>
<g id="Слой_10">
	<g>
		<path class="st18" d="M529.7,421.8H50.8c-10.6,0-19.3-8.6-19.3-19.3V123.1c0-10.6,8.6-19.3,19.3-19.3h478.9
			c10.6,0,19.3,8.6,19.3,19.3v279.4C549,413.2,540.4,421.8,529.7,421.8z"/>
		<g>
			<path class="st2" d="M100.1,226.3V251l-7.8,7.8l-2.6-2.6v-33.8L100.1,226.3z M89.7,297.7v-33.8l2.6-2.6l7.8,7.8v24.7L89.7,297.7z
				 M135.2,306.8h-39c-3.5-0.9-5.6-3-6.5-6.5l10.4-3.9h31.2L135.2,306.8z M131.3,223.7h-31l-10.4-3.9c0.9-3.5,3-5.6,6.5-6.5h38.8
				L131.3,223.7z M133.9,251v-27.3l3.9-10.4c3.5,0.9,5.6,3,6.5,6.5v36.4l-2.6,2.6L133.9,251z M141.7,261.3l2.6,2.6v36.4
				c-0.9,3.5-3,5.6-6.5,6.5l-3.9-10.4v-27.3L141.7,261.3z"/>
			<path class="st2" d="M168.3,226.3V251l-7.8,7.8l-2.6-2.6v-33.8L168.3,226.3z M158,297.7v-33.8l2.6-2.6l7.8,7.8v24.7L158,297.7z
				 M203.4,306.8h-39c-3.5-0.9-5.6-3-6.5-6.5l10.4-3.9h31.2L203.4,306.8z M199.5,223.7h-31l-10.4-3.9c0.9-3.5,3-5.6,6.5-6.5h38.8
				L199.5,223.7z M202.1,251v-27.3l3.9-10.4c3.5,0.9,5.6,3,6.5,6.5v36.4l-2.6,2.6L202.1,251z M209.9,261.3l2.6,2.6v36.4
				c-0.9,3.5-3,5.6-6.5,6.5l-3.9-10.4v-27.3L209.9,261.3z"/>
			<path class="st2" d="M236.6,244.5h-10.4v-10.4h10.4V244.5z M236.6,286h-10.4v-10.4h10.4V286z"/>
			<path class="st2" d="M260.7,226.3V251l-7.8,7.8l-2.6-2.6v-33.8L260.7,226.3z M250.3,297.7v-33.8l2.6-2.6l7.8,7.8v24.7
				L250.3,297.7z M295.7,306.8h-39c-3.5-0.9-5.6-3-6.5-6.5l10.4-3.9h31.2L295.7,306.8z M291.8,223.7h-31l-10.4-3.9
				c0.9-3.5,3-5.6,6.5-6.5h38.8L291.8,223.7z M294.4,251v-27.3l3.9-10.4c3.5,0.9,5.6,3,6.5,6.5v36.4l-2.6,2.6L294.4,251z
				 M302.2,261.3l2.6,2.6v36.4c-0.9,3.5-3,5.6-6.5,6.5l-3.9-10.4v-27.3L302.2,261.3z"/>
			<path class="st2" d="M328.9,226.3V251l-7.8,7.8l-2.6-2.6v-33.8L328.9,226.3z M318.5,297.7v-33.8l2.6-2.6l7.8,7.8v24.7
				L318.5,297.7z M363.9,306.8h-39c-3.5-0.9-5.6-3-6.5-6.5l10.4-3.9H360L363.9,306.8z M360,223.7h-31l-10.4-3.9
				c0.9-3.5,3-5.6,6.5-6.5h38.8L360,223.7z M362.6,251v-27.3l3.9-10.4c3.5,0.9,5.6,3,6.5,6.5v36.4l-2.6,2.6L362.6,251z M370.4,261.3
				l2.6,2.6v36.4c-0.9,3.5-3,5.6-6.5,6.5l-3.9-10.4v-27.3L370.4,261.3z"/>
			<path class="st2" d="M397.1,244.5h-10.4v-10.4h10.4V244.5z M397.1,286h-10.4v-10.4h10.4V286z"/>
			<path class="st2" d="M415.8,251.9v16.8l-5.3,5.3l-1.8-1.8v-23L415.8,251.9z M439.7,306.8h-26.5c-2.4-0.6-3.8-2.1-4.4-4.4l7.1-2.7
				H437L439.7,306.8z M439.7,250.2h-23.8l-7.1-2.7c0.6-2.4,2.1-3.8,4.4-4.4h29.1L439.7,250.2z M438.8,271.4l3.5,3.5l-3.5,3.5h-23
				l-3.5-3.5l3.5-3.5H438.8z M444.1,275.8l1.8,1.8v24.8c-0.6,2.4-2.1,3.8-4.4,4.4l-2.7-7.1v-18.6L444.1,275.8z"/>
			<path class="st2" d="M462.3,251.9v16.8l-5.3,5.3l-1.8-1.8v-23L462.3,251.9z M455.2,300.6v-23l1.8-1.8l5.3,5.3v16.8L455.2,300.6z
				 M486.2,306.8h-26.5c-2.4-0.6-3.8-2.1-4.4-4.4l7.1-2.7h21.2L486.2,306.8z M483.5,250.2h-21.1l-7.1-2.7c0.6-2.4,2.1-3.8,4.4-4.4
				h26.5L483.5,250.2z M485.3,271.4l3.5,3.5l-3.5,3.5h-23l-3.5-3.5l3.5-3.5H485.3z M485.3,268.7v-18.6l2.7-7.1
				c2.4,0.6,3.8,2.1,4.4,4.4v24.8l-1.8,1.8L485.3,268.7z M490.6,275.8l1.8,1.8v24.8c-0.6,2.4-2.1,3.8-4.4,4.4l-2.7-7.1v-18.6
				L490.6,275.8z"/>
		</g>
		<g>
			<path class="st2" d="M95.6,344.1l-4.6-1.7c0.4-1.5,1.3-2.5,2.9-2.9h18.4c1.5,0.4,2.5,1.3,2.9,2.9l-4.6,1.7H95.6z M100.7,357.4
				v-12.1h4.6v12.1l-2.3,2.3L100.7,357.4z M103,360.8l2.3,2.3v15c-0.4,1.5-1.3,2.5-2.9,2.9l-1.7-4.6v-13.2L103,360.8z"/>
			<path class="st2" d="M121.2,356.2v-12.1l1.7-4.6c1.5,0.4,2.5,1.3,2.9,2.9v16.1l-1.2,1.2L121.2,356.2z M124.6,360.3l1.2,1.2v16.1
				c-0.4,1.5-1.3,2.5-2.9,2.9l-1.7-4.6v-12.1L124.6,360.3z"/>
			<path class="st2" d="M136.4,345.3v10.9l-3.5,3.5l-1.2-1.2v-15L136.4,345.3z M136.4,364.3v12.1l-1.7,4.6c-1.5-0.4-2.5-1.3-2.9-2.9
				V362l1.2-1.2L136.4,364.3z M150.3,344.1h-13.8l-4.6-1.7c0.4-1.5,1.3-2.5,2.9-2.9H152L150.3,344.1z M146.2,358.5l-2.3,2.3
				l-2.3-2.3v-13.2h4.6V358.5z M151.4,356.2v-12.1l1.7-4.6c1.5,0.4,2.5,1.3,2.9,2.9v16.1l-1.2,1.2L151.4,356.2z M154.9,360.8
				l1.2,1.2v16.1c-0.4,1.5-1.3,2.5-2.9,2.9l-1.7-4.6v-12.1L154.9,360.8z"/>
			<path class="st2" d="M166.7,345.3v10.9l-3.5,3.5l-1.2-1.2v-15L166.7,345.3z M162.1,377v-15l1.2-1.2l3.5,3.5v10.9L162.1,377z
				 M184,381h-19c-1.5-0.4-2.5-1.3-2.9-2.9l4.6-1.7h15.6L184,381z M182.3,344.1h-15.5l-4.6-1.7c0.4-1.5,1.3-2.5,2.9-2.9H184
				L182.3,344.1z M181.7,358l2.3,2.3l-2.3,2.3h-15l-2.3-2.3l2.3-2.3H181.7z"/>
			<path class="st2" d="M212.3,345.3v10.9l-3.5,3.5l-1.2-1.2v-15L212.3,345.3z M212.3,364.3v12.1l-1.7,4.6c-1.5-0.4-2.5-1.3-2.9-2.9
				V362l1.2-1.2L212.3,364.3z M227.8,344.1h-15.5l-4.6-1.7c0.4-1.5,1.3-2.5,2.9-2.9h18.9L227.8,344.1z M227.2,358l2.3,2.3l-2.3,2.3
				h-15l-2.3-2.3l2.3-2.3H227.2z"/>
			<path class="st2" d="M236.8,359.7l-1.2-1.2v-16.1c0.4-1.5,1.3-2.5,2.9-2.9l1.7,4.6v12.1L236.8,359.7z M240.2,364.3v12.1l-1.7,4.6
				c-1.5-0.4-2.5-1.3-2.9-2.9V362l1.2-1.2L240.2,364.3z M241.4,376.4h13.8l4.6,1.7c-0.4,1.5-1.3,2.5-2.9,2.9h-17.3L241.4,376.4z"/>
			<path class="st2" d="M267,359.7l-1.2-1.2v-13.2l2.9-2.9l1.7,1.7v12.1L267,359.7z M270.5,364.3v12.1l-1.7,1.7l-2.9-2.9V362
				l1.2-1.2L270.5,364.3z M284.3,344.1h-12.7l-2.3-2.3l2.3-2.3h12.7l2.3,2.3L284.3,344.1z M286.6,378.7l-2.3,2.3h-12.7l-2.3-2.3
				l2.3-2.3h12.7L286.6,378.7z M285.5,356.2v-12.1l1.7-1.7l2.9,2.9v13.2l-1.2,1.2L285.5,356.2z M288.9,360.8l1.2,1.2v13.2l-2.9,2.9
				l-1.7-1.7v-12.1L288.9,360.8z"/>
			<path class="st2" d="M297.3,359.7l-1.2-1.2v-16.1c0.4-1.5,1.3-2.5,2.9-2.9l1.7,4.6v12.1L297.3,359.7z M296.2,377v-15l1.2-1.2
				l3.5,3.5v10.9L296.2,377z M316.3,381h-17.2c-1.5-0.4-2.5-1.3-2.9-2.9l4.6-1.7h13.8L316.3,381z M310.6,375.2H306V362l2.3-2.3
				l2.3,2.3V375.2z M315.7,356.2v-12.1l1.7-4.6c1.5,0.4,2.5,1.3,2.9,2.9v16.1l-1.2,1.2L315.7,356.2z M319.2,360.8l1.2,1.2v16.1
				c-0.4,1.5-1.3,2.5-2.9,2.9l-1.7-4.6v-12.1L319.2,360.8z"/>
			<path class="st2" d="M331,345.3v10.9l-3.5,3.5l-1.2-1.2v-15L331,345.3z M346.6,381h-17.3c-1.5-0.4-2.5-1.3-2.9-2.9l4.6-1.7h13.8
				L346.6,381z M331.1,344.1l-4.6-1.7c0.4-1.5,1.3-2.5,2.9-2.9h18.4c1.5,0.4,2.5,1.3,2.9,2.9l-4.6,1.7H331.1z M346,358l2.3,2.3
				l-2.3,2.3h-15l-2.3-2.3l2.3-2.3H346z M349.5,360.8l1.2,1.2v16.1c-0.4,1.5-1.3,2.5-2.9,2.9l-1.7-4.6v-12.1L349.5,360.8z"/>
			<path class="st2" d="M378.9,345.3v10.9l-3.5,3.5l-1.2-1.2v-15L378.9,345.3z M378.9,364.3v12.1l-1.7,4.6c-1.5-0.4-2.5-1.3-2.9-2.9
				V362l1.2-1.2L378.9,364.3z M392.7,344.1H379l-4.6-1.7c0.4-1.5,1.3-2.5,2.9-2.9h17.2L392.7,344.1z M393.9,358l2.3,2.3l-2.3,2.3
				h-15l-2.3-2.3l2.3-2.3H393.9z M393.9,356.2v-12.1l1.7-4.6c1.5,0.4,2.5,1.3,2.9,2.9v16.1l-1.2,1.2L393.9,356.2z M397.3,360.8
				l1.2,1.2v16.1c-0.4,1.5-1.3,2.5-2.9,2.9l-1.7-4.6v-12.1L397.3,360.8z"/>
			<path class="st2" d="M405.7,359.7l-1.2-1.2v-16.1c0.4-1.5,1.3-2.5,2.9-2.9l1.7,4.6v12.1L405.7,359.7z M404.6,377v-15l1.2-1.2
				l3.5,3.5v10.9L404.6,377z M424.7,381h-17.2c-1.5-0.4-2.5-1.3-2.9-2.9l4.6-1.7H423L424.7,381z M419,375.2h-4.6V362l2.3-2.3
				l2.3,2.3V375.2z M424.1,356.2v-12.1l1.7-4.6c1.5,0.4,2.5,1.3,2.9,2.9v16.1l-1.2,1.2L424.1,356.2z M427.6,360.8l1.2,1.2v16.1
				c-0.4,1.5-1.3,2.5-2.9,2.9l-1.7-4.6v-12.1L427.6,360.8z"/>
			<path class="st2" d="M439.4,345.3v10.9l-3.5,3.5l-1.2-1.2v-15L439.4,345.3z M439.4,364.3v12.1l-1.7,4.6c-1.5-0.4-2.5-1.3-2.9-2.9
				V362l1.2-1.2L439.4,364.3z M453.2,344.1h-13.8l-4.6-1.7c0.4-1.5,1.3-2.5,2.9-2.9H455L453.2,344.1z M454.4,358l2.3,2.3l-2.3,2.3
				h-15l-2.3-2.3l2.3-2.3H454.4z M454.4,356.2v-12.1l1.7-4.6c1.5,0.4,2.5,1.3,2.9,2.9v16.1l-1.2,1.2L454.4,356.2z M457.9,360.8
				l1.2,1.2v16.1c-0.4,1.5-1.3,2.5-2.9,2.9l-1.7-4.6v-12.1L457.9,360.8z"/>
			<path class="st2" d="M469.7,343.6v12.7l-3.5,3.5l-1.2-1.2v-16.7L469.7,343.6z M485.2,381H468c-1.5-0.4-2.5-1.3-2.9-2.9l4.6-1.7
				h13.8L485.2,381z M484.7,358l2.3,2.3l-2.3,2.3h-15l-2.3-2.3l2.3-2.3H484.7z M484.7,356.2v-12.1l1.7-4.6c1.5,0.4,2.5,1.3,2.9,2.9
				v16.1l-1.2,1.2L484.7,356.2z M488.1,360.8l1.2,1.2v16.1c-0.4,1.5-1.3,2.5-2.9,2.9l-1.7-4.6v-12.1L488.1,360.8z"/>
		</g>
		<g>
			<path class="st2" d="M92.7,163.2l-0.9-0.9v-12.7c0.3-1.2,1.1-2,2.3-2.3l1.4,3.6v9.6L92.7,163.2z M91.8,176.8V165l0.9-0.9l2.7,2.7
				v8.6L91.8,176.8z M107.7,180H94.1c-1.2-0.3-2-1.1-2.3-2.3l3.6-1.4h10.9L107.7,180z M103.2,175.5h-3.6V165l1.8-1.8l1.8,1.8V175.5z
				 M107.3,160.5v-9.6l1.4-3.6c1.2,0.3,2,1.1,2.3,2.3v12.7l-0.9,0.9L107.3,160.5z M110,164.1l0.9,0.9v12.7c-0.3,1.2-1.1,2-2.3,2.3
				l-1.4-3.6v-9.6L110,164.1z"/>
			<path class="st2" d="M119.4,151.8v8.6l-2.7,2.7l-0.9-0.9v-11.8L119.4,151.8z M119.4,166.8v9.6L118,180c-1.2-0.3-2-1.1-2.3-2.3
				V165l0.9-0.9L119.4,166.8z M130.3,150.9h-10.9l-3.6-1.4c0.3-1.2,1.1-2,2.3-2.3h13.6L130.3,150.9z M131.2,161.8l1.8,1.8l-1.8,1.8
				h-11.8l-1.8-1.8l1.8-1.8H131.2z M131.2,160.5v-9.6l1.4-3.6c1.2,0.3,2,1.1,2.3,2.3v12.7l-0.9,0.9L131.2,160.5z M133.9,164.1
				l0.9,0.9v12.7c-0.3,1.2-1.1,2-2.3,2.3l-1.4-3.6v-9.6L133.9,164.1z"/>
			<path class="st2" d="M143.3,151.8v8.6l-2.7,2.7l-0.9-0.9v-11.8L143.3,151.8z M143.3,166.8v9.6l-1.4,3.6c-1.2-0.3-2-1.1-2.3-2.3
				V165l0.9-0.9L143.3,166.8z M154.2,150.9h-10.9l-3.6-1.4c0.3-1.2,1.1-2,2.3-2.3h13.6L154.2,150.9z M155.1,161.8l1.8,1.8l-1.8,1.8
				h-11.8l-1.8-1.8l1.8-1.8H155.1z M144.2,166.4h2.7l11.8,11.8c-0.6,1.2-1.8,1.8-3.6,1.8l-10.9-10.9V166.4z M155.1,160.5v-9.6
				l1.4-3.6c1.2,0.3,2,1.1,2.3,2.3v12.7l-0.9,0.9L155.1,160.5z"/>
			<path class="st2" d="M164.5,163.7l-0.9-0.9V150c0.3-1.2,1.1-2,2.3-2.3l1.4,3.6v9.6L164.5,163.7z M167.2,166.8v9.6l-1.4,3.6
				c-1.2-0.3-2-1.1-2.3-2.3V165l0.9-0.9L167.2,166.8z M178.1,160.9h-3.2l-6.8-6.8v-2.7h2.7l7.3,7.3V160.9z M179,160.9v-9.6l1.4-3.6
				c1.2,0.3,2,1.1,2.3,2.3v12.7l-0.9,0.9L179,160.9z M181.7,164.1l0.9,0.9v12.7c-0.3,1.2-1.1,2-2.3,2.3l-1.4-3.6v-9.6L181.7,164.1z"
				/>
			<path class="st2" d="M187.4,160.5v-9.6l1.4-3.6c1.2,0.3,2,1.1,2.3,2.3v12.7l-0.9,0.9L187.4,160.5z M190.2,163.7l0.9,0.9v12.7
				c-0.3,1.2-1.1,2-2.3,2.3l-1.4-3.6v-9.6L190.2,163.7z"/>
			<path class="st2" d="M196.8,163.7l-0.9-0.9V150c0.3-1.2,1.1-2,2.3-2.3l1.4,3.6v9.6L196.8,163.7z M199.5,166.8v9.6l-1.4,3.6
				c-1.2-0.3-2-1.1-2.3-2.3V165l0.9-0.9L199.5,166.8z M210.4,160.9h-3.2l-6.8-6.8v-2.7h2.7l7.3,7.3V160.9z M211.4,160.9v-9.6
				l1.4-3.6c1.2,0.3,2,1.1,2.3,2.3v12.7l-0.9,0.9L211.4,160.9z M214.1,164.1l0.9,0.9v12.7c-0.3,1.2-1.1,2-2.3,2.3l-1.4-3.6v-9.6
				L214.1,164.1z"/>
			<path class="st2" d="M223.4,151.8v8.6l-2.7,2.7l-0.9-0.9v-11.8L223.4,151.8z M219.8,176.8V165l0.9-0.9l2.7,2.7v8.6L219.8,176.8z
				 M235.7,180h-13.6c-1.2-0.3-2-1.1-2.3-2.3l3.6-1.4h10.9L235.7,180z M235.7,150.9h-12.2l-3.6-1.4c0.3-1.2,1.1-2,2.3-2.3h15
				L235.7,150.9z M235.3,161.8l1.8,1.8l-1.8,1.8h-4.1l-1.8-1.8l1.8-1.8H235.3z M238,164.1l0.9,0.9v12.7c-0.3,1.2-1.1,2-2.3,2.3
				l-1.4-3.6v-9.6L238,164.1z"/>
			<path class="st2" d="M247.3,158.2h-3.6v-3.6h3.6V158.2z M247.3,172.7h-3.6v-3.6h3.6V172.7z"/>
			<path class="st2" d="M266.9,163.2l-0.9-0.9v-10.5l2.3-2.3l1.4,1.4v9.6L266.9,163.2z M269.7,166.8v9.6l-1.4,1.4l-2.3-2.3V165
				l0.9-0.9L269.7,166.8z M280.6,150.9h-10l-1.8-1.8l1.8-1.8h10l1.8,1.8L280.6,150.9z M282.4,178.2l-1.8,1.8h-10l-1.8-1.8l1.8-1.8
				h10L282.4,178.2z M281.5,160.5v-9.6l1.4-1.4l2.3,2.3v10.5l-0.9,0.9L281.5,160.5z M284.2,164.1l0.9,0.9v10.5l-2.3,2.3l-1.4-1.4
				v-9.6L284.2,164.1z"/>
			<path class="st2" d="M299,169l-5.4,11c-1.8,0-3-0.6-3.6-1.8l7-14.1h2V169z M299,163.2h-2l-7-14.1c0.6-1.2,1.8-1.8,3.6-1.8
				l5.4,11.1V163.2z M299.9,164.1h2l7,14.1c-0.6,1.2-1.8,1.8-3.6,1.8l-5.4-11V164.1z M300,158.3l5.4-11c1.8,0,3,0.6,3.6,1.8l-7,14.1
				h-2V158.3z"/>
			<path class="st2" d="M317.5,150.5v10l-2.7,2.7l-0.9-0.9v-13.2L317.5,150.5z M329.8,180h-13.6c-1.2-0.3-2-1.1-2.3-2.3l3.6-1.4
				h10.9L329.8,180z M329.3,161.8l1.8,1.8l-1.8,1.8h-11.8l-1.8-1.8l1.8-1.8H329.3z M329.3,160.5v-9.6l1.4-3.6c1.2,0.3,2,1.1,2.3,2.3
				v12.7l-0.9,0.9L329.3,160.5z M332,164.1l0.9,0.9v12.7c-0.3,1.2-1.1,2-2.3,2.3l-1.4-3.6v-9.6L332,164.1z"/>
			<path class="st2" d="M341.4,151.8v8.6l-2.7,2.7l-0.9-0.9v-11.8L341.4,151.8z M337.7,176.8V165l0.9-0.9l2.7,2.7v8.6L337.7,176.8z
				 M353.7,180H340c-1.2-0.3-2-1.1-2.3-2.3l3.6-1.4h10.9L353.7,180z M353.7,150.9h-12.2l-3.6-1.4c0.3-1.2,1.1-2,2.3-2.3h15
				L353.7,150.9z M353.2,161.8l1.8,1.8l-1.8,1.8h-4.1l-1.8-1.8l1.8-1.8H353.2z M355.9,164.1l0.9,0.9v12.7c-0.3,1.2-1.1,2-2.3,2.3
				l-1.4-3.6v-9.6L355.9,164.1z"/>
			<path class="st2" d="M365.3,151.8v8.6l-2.7,2.7l-0.9-0.9v-11.8L365.3,151.8z M361.7,176.8V165l0.9-0.9l2.7,2.7v8.6L361.7,176.8z
				 M378.9,180h-15c-1.2-0.3-2-1.1-2.3-2.3l3.6-1.4h12.3L378.9,180z M377.6,150.9h-12.2l-3.6-1.4c0.3-1.2,1.1-2,2.3-2.3h15
				L377.6,150.9z M377.1,161.8l1.8,1.8l-1.8,1.8h-11.8l-1.8-1.8l1.8-1.8H377.1z"/>
			<path class="st2" d="M384.6,163.7l-0.9-0.9V150c0.3-1.2,1.1-2,2.3-2.3l1.4,3.6v9.6L384.6,163.7z M387.4,166.8v9.6L386,180
				c-1.2-0.3-2-1.1-2.3-2.3V165l0.9-0.9L387.4,166.8z M398.3,160.9h-3.2l-6.8-6.8v-2.7h2.7l7.3,7.3V160.9z M399.2,160.9v-9.6
				l1.4-3.6c1.2,0.3,2,1.1,2.3,2.3v12.7l-0.9,0.9L399.2,160.9z M401.9,164.1l0.9,0.9v12.7c-0.3,1.2-1.1,2-2.3,2.3l-1.4-3.6v-9.6
				L401.9,164.1z"/>
			<path class="st2" d="M422.4,163.2l-0.9-0.9v-12.7c0.3-1.2,1.1-2,2.3-2.3l1.4,3.6v9.6L422.4,163.2z M425.2,166.8v9.6l-1.4,3.6
				c-1.2-0.3-2-1.1-2.3-2.3V165l0.9-0.9L425.2,166.8z M426.1,176.4H437l3.6,1.4c-0.3,1.2-1.1,2-2.3,2.3h-13.6L426.1,176.4z"/>
			<path class="st2" d="M446.4,163.2l-0.9-0.9v-10.5l2.3-2.3l1.4,1.4v9.6L446.4,163.2z M449.1,166.8v9.6l-1.4,1.4l-2.3-2.3V165
				l0.9-0.9L449.1,166.8z M460,150.9h-10l-1.8-1.8l1.8-1.8h10l1.8,1.8L460,150.9z M461.8,178.2L460,180h-10l-1.8-1.8l1.8-1.8h10
				L461.8,178.2z M460.9,160.5v-9.6l1.4-1.4l2.3,2.3v10.5l-0.9,0.9L460.9,160.5z M463.6,164.1l0.9,0.9v10.5l-2.3,2.3l-1.4-1.4v-9.6
				L463.6,164.1z"/>
			<path class="st2" d="M470.3,163.2l-0.9-0.9v-12.7c0.3-1.2,1.1-2,2.3-2.3l1.4,3.6v9.6L470.3,163.2z M469.4,176.8V165l0.9-0.9
				l2.7,2.7v8.6L469.4,176.8z M485.3,180h-13.6c-1.2-0.3-2-1.1-2.3-2.3l3.6-1.4h10.9L485.3,180z M480.7,175.5h-3.6V165l1.8-1.8
				l1.8,1.8V175.5z M484.8,160.5v-9.6l1.4-3.6c1.2,0.3,2,1.1,2.3,2.3v12.7l-0.9,0.9L484.8,160.5z M487.5,164.1l0.9,0.9v12.7
				c-0.3,1.2-1.1,2-2.3,2.3l-1.4-3.6v-9.6L487.5,164.1z"/>
		</g>
		<path class="st19" d="M541.1,432H39.5c-10.6,0-19.3-8.6-19.3-19.3V112.9c0-10.6,8.6-19.3,19.3-19.3h501.6
			c10.6,0,19.3,8.6,19.3,19.3v299.8C560.3,423.4,551.7,432,541.1,432z"/>
		<path class="st2" d="M137.3,85.7H22.6c-3.7,0-6.6,3-6.6,6.6v9.3v6.8v103.2L38.7,223V115c0-3.7,3-6.6,6.6-6.6H126L137.3,85.7z"/>
		<path class="st2" d="M444.7,439.6h114.7c3.7,0,6.6-3,6.6-6.6v-9.3v-6.8V313.7l-22.7-11.3v107.9c0,3.7-3,6.6-6.6,6.6H456
			L444.7,439.6z"/>
	</g>
</g>
<g id="Слой_16">
</g>
<g id="Слой_17">
</g>
<g id="Слой_14">
</g>
<g id="Слой_15">
</g>
<g id="Слой_19">
</g>
<g id="Слой_13">
</g>
<g id="Слой_20">
</g>
<g id="Слой_12">
</g>
<g id="Слой_21">
</g>
<g id="Слой_22">
</g>
<g id="Слой_23">
</g>
<g id="Слой_24">
</g>
<g id="Слой_25">
</g>
<g id="Слой_26">
</g>
<g id="Слой_18">
</g>
</svg>
