<svg width="520" height="293" viewBox="0 0 520 293" fill="none" xmlns="http://www.w3.org/2000/svg">
<path d="M78.0002 12.1016C78.7002 10.4016 79.6002 8.80155 80.8002 7.40155C82.0002 6.00155 83.3002 4.80157 84.8002 3.70157C86.3002 2.70157 87.9001 1.90155 89.7001 1.40155C91.5001 0.90155 93.2002 0.601562 95.1002 0.601562H185.5L158.5 66.9016C157.1 70.5016 154.8 73.3016 151.6 75.4016C148.5 77.5016 145 78.6016 141.2 78.6016H129.9L152.4 23.1016H136.1L115.8 73.3015C115.1 74.9015 114.1 76.2016 112.6 77.2016C111.1 78.2016 109.5 78.7016 107.8 78.7016H89.7001L112.2 23.2016H99.0002C97.9002 23.2016 97.2002 23.7016 96.8002 24.7016L76.9001 73.4016C76.2001 75.0016 75.2001 76.3015 73.7001 77.3015C72.2001 78.3015 70.7001 78.8015 68.9001 78.8015H50.9001L78.0002 12.1016Z" fill="white"/>
<path d="M165.5 78.6016L192.6 12.1016C194 8.60156 196.3 5.80157 199.4 3.70157C202.5 1.60157 205.9 0.601562 209.7 0.601562H281L254.1 66.9016C252.7 70.5016 250.4 73.3016 247.2 75.4016C244.1 77.5016 240.6 78.6016 236.8 78.6016H225.5L237.6 48.8015H201.5L191.5 73.2016C190.8 74.8016 189.8 76.1016 188.3 77.1016C186.8 78.1016 185.2 78.6016 183.4 78.6016H165.5V78.6016ZM243.4 30.4016C244.5 30.4016 245.2 29.9016 245.6 28.9016L248 23.1016H213.6C212.5 23.1016 211.8 23.6016 211.4 24.6016L209 30.4016H243.4Z" fill="white"/>
<path d="M261.1 78.6016L288.1 12.1016C288.8 10.4016 289.7 8.80155 290.9 7.40155C292.1 6.00155 293.4 4.80157 294.9 3.70157C296.4 2.70157 298 1.90155 299.8 1.40155C301.6 0.90155 303.3 0.601562 305.2 0.601562H376.6L349.6 66.9016C348.2 70.5016 345.9 73.3016 342.7 75.4016C339.6 77.5016 336.1 78.6016 332.3 78.6016H321L343.5 23.1016H309.1C308 23.1016 307.3 23.6016 306.9 24.6016L287.2 73.3015C286.5 74.9015 285.5 76.2016 284.1 77.2016C282.7 78.2016 281.1 78.7016 279.4 78.7016H279.2H261.1V78.6016Z" fill="white"/>
<path d="M384.3 5.60156C385 3.90156 386 2.60156 387.5 1.60156C389 0.601562 390.6 0.101562 392.4 0.101562H410.5L399.4 27.3015H432C433.1 27.3015 434.1 27.0016 435 26.4016C435.9 25.8016 436.5 25.0016 437 24.0016L444.6 5.50156C445.3 3.80156 446.3 2.50156 447.8 1.60156C449.3 0.701563 450.8 0.201569 452.6 0.201569H470.4L455.6 36.6016C454.2 40.2016 451.9 43.0016 448.7 45.1016C445.5 47.2016 442.1 48.3015 438.3 48.3015H422.7L412.7 72.7016C412 74.4016 411 75.7016 409.5 76.7016C408 77.7016 406.5 78.2016 404.7 78.2016H386.5L398.6 48.3015H366.9L384.3 5.60156Z" fill="white"/>
<path d="M27.9 119.002C28.6 117.302 29.5 115.702 30.7 114.302C31.9 112.902 33.2 111.702 34.7 110.602C36.2 109.602 37.8001 108.802 39.6001 108.302C41.4001 107.802 43.1 107.502 45 107.502H135.4L108.4 173.802C107 177.402 104.7 180.202 101.5 182.302C98.4 184.402 94.9001 185.502 91.1001 185.502H79.8L102.3 130.002H86L65.7 180.202C65 181.802 64 183.102 62.5 184.102C61 185.102 59.4 185.602 57.7 185.602H39.6001L62.1001 130.102H48.9C47.8 130.102 47.1 130.602 46.7 131.602L26.8 180.302C26.1 181.902 25.1001 183.202 23.6001 184.202C22.1001 185.202 20.6 185.702 18.8 185.702H0.800049L27.9 119.002Z" fill="white"/>
<path d="M143.7 119.202C145.1 115.602 147.4 112.802 150.6 110.702C153.7 108.602 157.2 107.502 161 107.502H232.2L205.3 173.802C203.9 177.402 201.6 180.202 198.4 182.302C195.3 184.402 191.8 185.502 188 185.502H116.8L143.7 119.202ZM149.4 163.102H183C183.9 163.102 184.8 162.802 185.5 162.302C186.2 161.802 186.8 161.102 187.1 160.302L199.5 130.102H165.9C163.9 130.102 162.5 131.002 161.7 132.902L149.4 163.102Z" fill="white"/>
<path d="M239.3 119.202C240.7 115.602 243 112.802 246.2 110.702C249.3 108.602 252.8 107.502 256.6 107.502H327.8L300.9 173.802C299.5 177.402 297.2 180.202 294 182.302C290.8 184.402 287.4 185.502 283.6 185.502H212.4L239.3 119.202ZM245 163.102H278.6C279.5 163.102 280.4 162.802 281.1 162.302C281.8 161.802 282.4 161.102 282.7 160.302L295.1 130.102H261.5C259.5 130.102 258.1 131.002 257.3 132.902L245 163.102Z" fill="white"/>
<path d="M308 185.502L335 119.002C335.7 117.302 336.6 115.702 337.8 114.302C339 112.902 340.3 111.702 341.8 110.602C343.3 109.602 344.9 108.802 346.7 108.302C348.5 107.802 350.2 107.502 352.1 107.502H423.5L396.5 173.802C395.1 177.402 392.8 180.202 389.6 182.302C386.5 184.402 383 185.502 379.2 185.502H367.9L390.4 130.002H356C354.9 130.002 354.2 130.502 353.8 131.502L334.1 180.202C333.4 181.802 332.4 183.102 331 184.102C329.6 185.102 328 185.602 326.3 185.602H326.1H308V185.502Z" fill="white"/>
<path d="M410.6 168.402C411.3 166.802 412.3 165.502 413.8 164.502C415.3 163.502 416.8 163.002 418.6 163.002H472.8L475.7 155.702H415.8L430.7 119.002C431.4 117.302 432.3 115.702 433.5 114.302C434.7 112.902 436 111.702 437.5 110.602C439 109.602 440.6 108.802 442.4 108.302C444.2 107.802 445.9 107.502 447.8 107.502H519.2L512.2 124.602C511.5 126.202 510.5 127.502 509 128.502C507.5 129.502 506 130.002 504.2 130.002H450L447.1 137.302H507L496.6 163.102L492.1 173.902C490.6 177.502 488.3 180.302 485.2 182.402C482.1 184.502 478.6 185.602 474.8 185.602H403.6L410.6 168.402Z" fill="white"/>
<path d="M106 292.502L133.1 226.002C134.5 222.502 136.8 219.702 139.9 217.602C143 215.502 146.4 214.502 150.2 214.502H221.5L194.6 280.802C193.2 284.402 190.9 287.202 187.7 289.302C184.6 291.402 181.1 292.502 177.3 292.502H166L178.1 262.702H142L132 287.102C131.3 288.702 130.3 290.002 128.8 291.002C127.3 292.002 125.7 292.502 123.9 292.502H106ZM183.9 244.202C185 244.202 185.7 243.702 186.1 242.702L188.5 236.902H154.1C153 236.902 152.3 237.402 151.9 238.402L149.5 244.202H183.9Z" fill="white"/>
<path d="M228.9 225.202C230.4 221.902 232.7 219.302 235.7 217.402C238.7 215.502 242 214.502 245.6 214.502H317L312.5 225.402C311.1 228.902 308.8 231.702 305.6 233.802C302.5 235.902 299 237.002 295.2 237.002H250.7C249.9 237.002 249.1 237.202 248.5 237.702C247.9 238.102 247.3 238.702 246.8 239.302C246.6 239.702 246.1 241.002 245.2 243.202C244.8 244.202 244.3 245.402 243.7 246.902C243.1 248.402 242.4 250.202 241.5 252.402C240.6 254.602 239.6 257.102 238.3 260.002C237.1 262.902 235.7 266.302 234.2 270.202H265C266.7 270.202 268.3 269.702 269.8 268.702C271.3 267.702 272.4 266.402 273 264.802C273.1 264.402 273.3 264.102 273.4 263.802C273.5 263.502 273.7 263.202 273.8 262.902H259.5C260.7 259.902 261.7 257.402 262.6 255.202C263.5 253.102 264.2 251.302 264.8 249.902C265.5 248.202 266.5 246.902 268 245.902C269.5 244.902 271 244.402 272.8 244.402H305L290 280.802C288.6 284.402 286.3 287.202 283.2 289.302C280.1 291.402 276.6 292.502 272.7 292.502H201.6C206.7 280.002 211.3 268.802 215.2 258.902L228.9 225.202Z" fill="white"/>
<path d="M325.4 226.102C326.8 222.502 329.1 219.702 332.3 217.602C335.4 215.502 338.9 214.402 342.7 214.402H413.9L387 280.802C385.6 284.402 383.3 287.202 380.1 289.302C377 291.402 373.5 292.502 369.7 292.502H298.5L325.4 226.102ZM331.1 270.002H364.7C365.6 270.002 366.5 269.702 367.2 269.202C367.9 268.702 368.5 268.002 368.8 267.202L381.2 237.002H347.6C345.6 237.002 344.2 237.902 343.4 239.802L331.1 270.002Z" fill="white"/>
</svg>
