<?xml version="1.0" encoding="utf-8"?>
<!-- Generator: Adobe Illustrator 25.0.1, SVG Export Plug-In . SVG Version: 6.00 Build 0)  -->
<svg version="1.1" xmlns="http://www.w3.org/2000/svg" xmlns:xlink="http://www.w3.org/1999/xlink" x="0px" y="0px"
	 viewBox="0 0 554 171" style="enable-background:new 0 0 554 171;" xml:space="preserve">
<style type="text/css">
	.st0{fill:#22242B;}
	.st1{fill:#86E0DD;}
	.st2{enable-background:new    ;}
	.st3{fill:#FFFFFF;}
	.st4{fill:none;stroke:#FFFFFF;stroke-width:3;stroke-miterlimit:10;}
	.st5{opacity:0.2;fill:#F7A9D3;}
	.st6{fill:none;stroke:#FFFFFF;stroke-width:4;stroke-miterlimit:10;}
	.st7{fill:#94D860;}
	.st8{fill:none;stroke:#FFFFFF;stroke-width:5;stroke-miterlimit:10;}
	.st9{fill:none;stroke:#FFFFFF;stroke-width:5;stroke-linecap:round;stroke-miterlimit:10;}
	.st10{fill:none;stroke:#FFFFFF;stroke-width:2;stroke-miterlimit:10;}
	.st11{fill:#22242B;stroke:#FFFFFF;stroke-width:3;stroke-miterlimit:10;}
	.st12{opacity:0.2;fill:#FFFFFF;}
</style>
<g id="Слой_11">
</g>
<g id="Basket">
</g>
<g id="New_Collection">
</g>
<g id="Menu">
</g>
<g id="Market">
</g>
<g id="Login">
	<g id="_x5B_YOUR_IMAGE_HERE_x5D_">
	</g>
</g>
<g id="Слой_8">
	<g id="_x5B_YOUR_TEXT_HERE_x5D__1_">
	</g>
</g>
<g id="Слой_10">
</g>
<g id="Слой_16">
</g>
<g id="Слой_17">
</g>
<g id="Слой_14">
</g>
<g id="Слой_15">
	<g>
		<path class="st11" d="M396.2,125H157.8c-15.1,0-27.3-12.2-27.3-27.3V73.3c0-15.1,12.2-27.3,27.3-27.3h238.5
			c15.1,0,27.3,12.2,27.3,27.3v24.5C423.5,112.8,411.3,125,396.2,125z"/>
		<g>
			<path class="st3" d="M196.5,94.8c0,2.9-1,5.2-3.1,6.9c-2.1,1.7-5,2.5-8.7,2.5c-3.4,0-6.5-0.6-9.1-1.9v-6.3c2.2,1,4,1.6,5.5,2
				c1.5,0.4,2.9,0.6,4.1,0.6c1.5,0,2.6-0.3,3.4-0.9c0.8-0.6,1.2-1.4,1.2-2.5c0-0.6-0.2-1.2-0.5-1.7c-0.4-0.5-0.9-1-1.5-1.4
				c-0.7-0.5-2.1-1.2-4.2-2.2c-2-0.9-3.4-1.8-4.4-2.7s-1.8-1.8-2.4-3c-0.6-1.1-0.9-2.4-0.9-4c0-2.8,1-5.1,2.9-6.7
				c1.9-1.6,4.6-2.4,8-2.4c1.7,0,3.3,0.2,4.8,0.6c1.5,0.4,3.1,1,4.8,1.7l-2.2,5.3c-1.7-0.7-3.1-1.2-4.3-1.5
				c-1.1-0.3-2.2-0.4-3.3-0.4c-1.3,0-2.3,0.3-3,0.9s-1,1.4-1,2.4c0,0.6,0.1,1.1,0.4,1.6c0.3,0.4,0.7,0.9,1.3,1.3
				c0.6,0.4,2,1.2,4.3,2.3c3,1.4,5.1,2.9,6.2,4.3C196,91,196.5,92.7,196.5,94.8z"/>
			<path class="st3" d="M220.8,103.8h-18.5V71.6h18.5v5.6h-11.7v7.1H220v5.6h-10.9v8.3h11.7V103.8z"/>
			<path class="st3" d="M239.9,103.8h-6.8V77.3h-8.7v-5.7h24.3v5.7h-8.7V103.8z"/>
			<path class="st3" d="M266,103.8h-6.8V77.3h-8.7v-5.7h24.3v5.7H266V103.8z"/>
			<path class="st3" d="M279.7,103.8V71.6h6.8v32.1H279.7z"/>
			<path class="st3" d="M323.1,103.8h-8.7l-14-24.3h-0.2c0.3,4.3,0.4,7.4,0.4,9.2v15.1h-6.1V71.6h8.6l14,24.1h0.2
				c-0.2-4.2-0.3-7.1-0.3-8.9V71.6h6.1V103.8z"/>
			<path class="st3" d="M343.3,85.7h12.7v16.7c-2.1,0.7-4,1.1-5.8,1.4c-1.8,0.3-3.7,0.4-5.6,0.4c-4.8,0-8.6-1.4-11.1-4.3
				c-2.6-2.8-3.8-6.9-3.8-12.3c0-5.2,1.5-9.2,4.5-12.1c3-2.9,7.1-4.3,12.3-4.3c3.3,0,6.5,0.7,9.5,2l-2.3,5.4
				c-2.3-1.2-4.8-1.8-7.3-1.8c-2.9,0-5.3,1-7.1,3s-2.7,4.6-2.7,8c0,3.5,0.7,6.1,2.1,8c1.4,1.8,3.5,2.8,6.2,2.8
				c1.4,0,2.9-0.1,4.3-0.4v-6.7h-6.1V85.7z"/>
			<path class="st3" d="M382.7,94.8c0,2.9-1,5.2-3.1,6.9c-2.1,1.7-5,2.5-8.7,2.5c-3.4,0-6.5-0.6-9.1-1.9v-6.3c2.2,1,4,1.6,5.5,2
				c1.5,0.4,2.9,0.6,4.1,0.6c1.5,0,2.6-0.3,3.4-0.9c0.8-0.6,1.2-1.4,1.2-2.5c0-0.6-0.2-1.2-0.5-1.7c-0.4-0.5-0.9-1-1.5-1.4
				c-0.7-0.5-2.1-1.2-4.2-2.2c-2-0.9-3.4-1.8-4.4-2.7s-1.8-1.8-2.4-3c-0.6-1.1-0.9-2.4-0.9-4c0-2.8,1-5.1,2.9-6.7
				c1.9-1.6,4.6-2.4,8-2.4c1.7,0,3.3,0.2,4.8,0.6c1.5,0.4,3.1,1,4.8,1.7l-2.2,5.3c-1.7-0.7-3.1-1.2-4.3-1.5
				c-1.1-0.3-2.2-0.4-3.3-0.4c-1.3,0-2.3,0.3-3,0.9s-1,1.4-1,2.4c0,0.6,0.1,1.1,0.4,1.6c0.3,0.4,0.7,0.9,1.3,1.3
				c0.6,0.4,2,1.2,4.3,2.3c3,1.4,5.1,2.9,6.2,4.3C382.1,91,382.7,92.7,382.7,94.8z"/>
		</g>
	</g>
</g>
<g id="Слой_19">
</g>
<g id="Слой_13">
</g>
<g id="Слой_20">
</g>
<g id="Слой_12">
</g>
<g id="Слой_21">
</g>
<g id="Слой_22">
</g>
<g id="Слой_23">
</g>
<g id="Слой_24">
</g>
<g id="Слой_25">
</g>
<g id="Слой_26">
</g>
<g id="Слой_18">
</g>
</svg>
