<?xml version="1.0" encoding="utf-8"?>
<!-- Generator: Adobe Illustrator 25.0.1, SVG Export Plug-In . SVG Version: 6.00 Build 0)  -->
<svg version="1.1" xmlns="http://www.w3.org/2000/svg" xmlns:xlink="http://www.w3.org/1999/xlink" x="0px" y="0px"
	 viewBox="0 0 554 171" style="enable-background:new 0 0 554 171;" xml:space="preserve">
<style type="text/css">
	.st0{fill:#22242B;}
	.st1{fill:#86E0DD;}
	.st2{enable-background:new    ;}
	.st3{fill:#FFFFFF;}
	.st4{fill:none;stroke:#FFFFFF;stroke-width:3;stroke-miterlimit:10;}
	.st5{opacity:0.2;fill:#F7A9D3;}
	.st6{fill:none;stroke:#FFFFFF;stroke-width:4;stroke-miterlimit:10;}
	.st7{fill:#94D860;}
	.st8{fill:none;stroke:#FFFFFF;stroke-width:5;stroke-miterlimit:10;}
	.st9{fill:none;stroke:#FFFFFF;stroke-width:5;stroke-linecap:round;stroke-miterlimit:10;}
	.st10{fill:none;stroke:#FFFFFF;stroke-width:2;stroke-miterlimit:10;}
	.st11{fill:#22242B;stroke:#FFFFFF;stroke-width:3;stroke-miterlimit:10;}
	.st12{opacity:0.2;fill:#FFFFFF;}
</style>
<g id="Слой_11">
</g>
<g id="Basket">
</g>
<g id="New_Collection">
</g>
<g id="Menu">
</g>
<g id="Market">
</g>
<g id="Login">
	<g id="_x5B_YOUR_IMAGE_HERE_x5D_">
	</g>
</g>
<g id="Слой_8">
	<g id="_x5B_YOUR_TEXT_HERE_x5D__1_">
	</g>
</g>
<g id="Слой_10">
</g>
<g id="Слой_16">
</g>
<g id="Слой_17">
</g>
<g id="Слой_14">
</g>
<g id="Слой_15">
</g>
<g id="Слой_19">
</g>
<g id="Слой_13">
	<g>
		<path class="st11" d="M396.2,125H157.8c-15.1,0-27.3-12.2-27.3-27.3V73.3c0-15.1,12.2-27.3,27.3-27.3h238.5
			c15.1,0,27.3,12.2,27.3,27.3v24.5C423.5,112.8,411.3,125,396.2,125z"/>
		<g>
			<path class="st3" d="M249.3,77c0,3.5-1.1,6.1-3.2,7.9c-2.2,1.8-5.2,2.7-9.2,2.7H234v11.4h-6.8V67h10.3c3.9,0,6.9,0.8,8.9,2.5
				C248.3,71.2,249.3,73.7,249.3,77z M234,82.1h2.2c2.1,0,3.7-0.4,4.7-1.2s1.6-2,1.6-3.6c0-1.6-0.4-2.8-1.3-3.5
				c-0.9-0.8-2.2-1.1-4.1-1.1H234V82.1z"/>
			<path class="st3" d="M255.4,99.1V67h6.8v26.5h13v5.6H255.4z"/>
			<path class="st3" d="M300.5,99.1l-2.3-7.6h-11.7l-2.3,7.6h-7.3l11.3-32.3h8.3l11.4,32.3H300.5z M296.5,85.7
				c-2.2-6.9-3.4-10.8-3.6-11.8c-0.3-0.9-0.5-1.6-0.6-2.2c-0.5,1.9-1.9,6.5-4.2,13.9H296.5z"/>
			<path class="st3" d="M321.9,80.2l6.7-13.2h7.3l-10.7,19.6v12.5h-6.8V86.8L307.8,67h7.4L321.9,80.2z"/>
		</g>
	</g>
</g>
<g id="Слой_20">
</g>
<g id="Слой_12">
</g>
<g id="Слой_21">
</g>
<g id="Слой_22">
</g>
<g id="Слой_23">
</g>
<g id="Слой_24">
</g>
<g id="Слой_25">
</g>
<g id="Слой_26">
</g>
<g id="Слой_18">
</g>
</svg>
