<?xml version="1.0" encoding="utf-8"?>
<!-- Generator: Adobe Illustrator 25.0.1, SVG Export Plug-In . SVG Version: 6.00 Build 0)  -->
<svg version="1.1" xmlns="http://www.w3.org/2000/svg" xmlns:xlink="http://www.w3.org/1999/xlink" x="0px" y="0px"
	 viewBox="0 0 554 171" style="enable-background:new 0 0 554 171;" xml:space="preserve">
<style type="text/css">
	.st0{fill:#22242B;}
	.st1{fill:#86E0DD;}
	.st2{enable-background:new    ;}
	.st3{fill:#FFFFFF;}
	.st4{fill:none;stroke:#FFFFFF;stroke-width:3;stroke-miterlimit:10;}
	.st5{opacity:0.2;fill:#F7A9D3;}
	.st6{fill:none;stroke:#FFFFFF;stroke-width:4;stroke-miterlimit:10;}
	.st7{fill:#94D860;}
	.st8{fill:none;stroke:#FFFFFF;stroke-width:5;stroke-miterlimit:10;}
	.st9{fill:none;stroke:#FFFFFF;stroke-width:5;stroke-linecap:round;stroke-miterlimit:10;}
	.st10{fill:none;stroke:#FFFFFF;stroke-width:2;stroke-miterlimit:10;}
	.st11{fill:#22242B;stroke:#FFFFFF;stroke-width:3;stroke-miterlimit:10;}
	.st12{opacity:0.2;fill:#FFFFFF;}
</style>
<g id="Слой_11">
</g>
<g id="Basket">
</g>
<g id="New_Collection">
</g>
<g id="Menu">
</g>
<g id="Market">
</g>
<g id="Login">
	<g id="_x5B_YOUR_IMAGE_HERE_x5D_">
	</g>
</g>
<g id="Слой_8">
	<g id="_x5B_YOUR_TEXT_HERE_x5D__1_">
	</g>
</g>
<g id="Слой_10">
</g>
<g id="Слой_16">
</g>
<g id="Слой_17">
</g>
<g id="Слой_14">
</g>
<g id="Слой_15">
</g>
<g id="Слой_19">
</g>
<g id="Слой_13">
</g>
<g id="Слой_20">
</g>
<g id="Слой_12">
</g>
<g id="Слой_21">
</g>
<g id="Слой_22">
</g>
<g id="Слой_23">
</g>
<g id="Слой_24">
</g>
<g id="Слой_25">
</g>
<g id="Слой_26">
</g>
<g id="Слой_18">
	<g>
		<path class="st11" d="M396.2,125H157.8c-15.1,0-27.3-12.2-27.3-27.3V73.3c0-15.1,12.2-27.3,27.3-27.3h238.5
			c15.1,0,27.3,12.2,27.3,27.3v24.5C423.5,112.8,411.3,125,396.2,125z"/>
		<g>
			<path class="st3" d="M253.5,101.9H235V69.8h18.5v5.6h-11.7v7.1h10.9V88h-10.9v8.3h11.7V101.9z"/>
			<path class="st3" d="M286.1,101.9h-7.8l-7.5-12.2l-7.5,12.2h-7.3l10.7-16.6l-10-15.6h7.5l6.9,11.6l6.8-11.6h7.3l-10.1,15.9
				L286.1,101.9z"/>
			<path class="st3" d="M290.2,101.9V69.8h6.8v32.1H290.2z"/>
			<path class="st3" d="M317.5,101.9h-6.8V75.5h-8.7v-5.7h24.3v5.7h-8.7V101.9z"/>
		</g>
	</g>
</g>
</svg>
