<?xml version="1.0" encoding="utf-8"?>
<!-- Generator: Adobe Illustrator 25.0.1, SVG Export Plug-In . SVG Version: 6.00 Build 0)  -->
<svg version="1.1" xmlns="http://www.w3.org/2000/svg" xmlns:xlink="http://www.w3.org/1999/xlink" x="0px" y="0px"
	 viewBox="0 0 583 502" style="enable-background:new 0 0 583 502;" xml:space="preserve">
<style type="text/css">
	.st0{fill:#22242B;}
	.st1{enable-background:new    ;}
	.st2{fill:#FFFFFF;}
	.st3{fill:none;stroke:#FFFFFF;stroke-width:3;stroke-miterlimit:10;}
	.st4{fill:#21232B;}
	.st5{fill:#75C9F9;}
	.st6{fill:none;stroke:#FFFFFF;stroke-width:5;stroke-miterlimit:10;}
	.st7{fill:none;stroke:#FFFFFF;stroke-width:5;stroke-linecap:round;stroke-miterlimit:10;}
	.st8{fill:#606060;}
	.st9{fill:#202828;stroke:#FFFFFF;stroke-width:3;stroke-linecap:round;stroke-linejoin:round;stroke-miterlimit:10;}
	.st10{fill:#21232B;stroke:#2BD2F9;stroke-width:2;stroke-miterlimit:10;}
	.st11{display:none;}
	.st12{display:inline;}
	.st13{fill:#76CBF9;}
	.st14{fill:none;stroke:#7AC7F0;stroke-width:2;stroke-linecap:round;stroke-linejoin:round;stroke-miterlimit:10;}
	.st15{fill:none;stroke:#7AC7F0;stroke-width:2;stroke-miterlimit:10;}
	.st16{fill:none;stroke:#FFFFFF;stroke-width:3;stroke-linecap:round;stroke-linejoin:round;stroke-miterlimit:10;}
	.st17{fill:#0AEDE6;}
	.st18{opacity:0.2;fill:#FFFFFF;}
	.st19{fill:none;stroke:#FFFFFF;stroke-width:4;stroke-miterlimit:10;}
	.st20{fill:none;stroke:#FFFFFF;stroke-width:2;stroke-miterlimit:10;}
	.st21{fill:#22242B;stroke:#FFFFFF;stroke-width:3;stroke-miterlimit:10;}
	.st22{opacity:0.25;fill:#75C9F9;}
	.st23{fill:none;stroke:#7AC7F0;stroke-width:5;stroke-linecap:round;stroke-linejoin:round;stroke-miterlimit:10;}
</style>
<g id="Слой_11">
</g>
<g id="Basket">
</g>
<g id="New_Collection">
</g>
<g id="Menu">
</g>
<g id="Market">
</g>
<g id="Login">
	<g id="_x5B_YOUR_IMAGE_HERE_x5D_">
	</g>
</g>
<g id="Слой_8">
	<g id="_x5B_YOUR_TEXT_HERE_x5D__1_">
	</g>
</g>
<g id="Слой_10">
</g>
<g id="Слой_16">
</g>
<g id="Слой_17">
</g>
<g id="Слой_14">
</g>
<g id="Слой_15">
</g>
<g id="Слой_19">
</g>
<g id="Слой_13">
</g>
<g id="Слой_20">
</g>
<g id="Слой_12">
</g>
<g id="Слой_21">
</g>
<g id="Слой_22">
</g>
<g id="Слой_23">
</g>
<g id="Слой_24">
</g>
<g id="Слой_25">
</g>
<g id="Слой_26">
</g>
<g id="Слой_18">
	<g>
		<path class="st19" d="M481.4,386.5H95.7c-10.6,0-19.3-8.6-19.3-19.3V140c0-10.6,8.6-19.3,19.3-19.3h385.7
			c10.6,0,19.3,8.6,19.3,19.3v227.2C500.7,377.8,492,386.5,481.4,386.5z"/>
		<g>
			<path class="st2" d="M119.4,178.5h-3.6v-7.4H109v7.4h-3.6v-17.1h3.6v6.7h6.8v-6.7h3.6V178.5z"/>
			<path class="st2" d="M133.6,178.5h-9.8v-17.1h9.8v3h-6.2v3.8h5.8v3h-5.8v4.4h6.2V178.5z"/>
			<path class="st2" d="M142.5,168.4l3.6-7h3.9l-5.7,10.4v6.7h-3.6V172l-5.7-10.6h3.9L142.5,168.4z"/>
			<path class="st2" d="M151.3,176.8c0-0.7,0.2-1.1,0.5-1.5c0.4-0.3,0.9-0.5,1.5-0.5c0.6,0,1.1,0.2,1.5,0.5c0.4,0.3,0.5,0.8,0.5,1.5
				c0,0.6-0.2,1.1-0.5,1.5c-0.4,0.4-0.9,0.5-1.5,0.5c-0.7,0-1.2-0.2-1.5-0.5C151.5,177.9,151.3,177.5,151.3,176.8z"/>
			<path class="st2" d="M158.1,176.8c0-0.7,0.2-1.1,0.5-1.5c0.4-0.3,0.9-0.5,1.5-0.5c0.6,0,1.1,0.2,1.5,0.5c0.4,0.3,0.5,0.8,0.5,1.5
				c0,0.6-0.2,1.1-0.5,1.5c-0.4,0.4-0.9,0.5-1.5,0.5c-0.7,0-1.2-0.2-1.5-0.5C158.3,177.9,158.1,177.5,158.1,176.8z"/>
			<path class="st2" d="M165,176.8c0-0.7,0.2-1.1,0.5-1.5c0.4-0.3,0.9-0.5,1.5-0.5c0.6,0,1.1,0.2,1.5,0.5c0.4,0.3,0.5,0.8,0.5,1.5
				c0,0.6-0.2,1.1-0.5,1.5c-0.4,0.4-0.9,0.5-1.5,0.5c-0.7,0-1.2-0.2-1.5-0.5C165.2,177.9,165,177.5,165,176.8z"/>
			<path class="st2" d="M189.3,178.5l-1.2-4.1h-6.2l-1.2,4.1h-3.9l6-17.2h4.4l6.1,17.2H189.3z M187.2,171.4
				c-1.1-3.7-1.8-5.8-1.9-6.3c-0.1-0.5-0.2-0.9-0.3-1.1c-0.3,1-1,3.5-2.2,7.4H187.2z"/>
			<path class="st2" d="M210.5,178.5h-4.6l-7.4-12.9h-0.1c0.1,2.3,0.2,3.9,0.2,4.9v8h-3.2v-17.1h4.6l7.4,12.8h0.1
				c-0.1-2.2-0.2-3.8-0.2-4.7v-8.1h3.3V178.5z"/>
			<path class="st2" d="M220.1,168.4l3.6-7h3.9l-5.7,10.4v6.7h-3.6V172l-5.7-10.6h3.9L220.1,168.4z"/>
			<path class="st2" d="M229.8,161.4h5.3c2.4,0,4.2,0.3,5.3,1c1.1,0.7,1.6,1.8,1.6,3.3c0,1-0.2,1.9-0.7,2.5c-0.5,0.7-1.1,1-1.9,1.2
				v0.1c1.1,0.2,1.9,0.7,2.3,1.4c0.5,0.7,0.7,1.5,0.7,2.6c0,1.6-0.6,2.8-1.7,3.6c-1.1,0.9-2.7,1.3-4.6,1.3h-6.4V161.4z M233.4,168.2
				h2.1c1,0,1.7-0.2,2.1-0.5c0.4-0.3,0.7-0.8,0.7-1.5c0-0.7-0.2-1.1-0.7-1.4c-0.5-0.3-1.2-0.4-2.3-0.4h-1.9V168.2z M233.4,171v4.5
				h2.4c1,0,1.7-0.2,2.2-0.6c0.5-0.4,0.7-1,0.7-1.8c0-1.4-1-2.1-3-2.1H233.4z"/>
			<path class="st2" d="M261.4,169.9c0,2.8-0.7,5-2.1,6.5c-1.4,1.5-3.4,2.3-6,2.3s-4.6-0.8-6-2.3c-1.4-1.5-2.1-3.7-2.1-6.5
				c0-2.8,0.7-5,2.1-6.5c1.4-1.5,3.4-2.3,6.1-2.3c2.6,0,4.6,0.8,6,2.3C260.7,164.9,261.4,167.1,261.4,169.9z M248.9,169.9
				c0,1.9,0.4,3.3,1.1,4.3c0.7,1,1.8,1.5,3.3,1.5c2.9,0,4.3-1.9,4.3-5.8c0-3.9-1.4-5.8-4.3-5.8c-1.4,0-2.5,0.5-3.3,1.5
				C249.3,166.6,248.9,168,248.9,169.9z"/>
			<path class="st2" d="M279.1,169.8c0,2.8-0.8,5-2.4,6.5c-1.6,1.5-3.9,2.2-6.9,2.2h-4.8v-17.1h5.4c2.8,0,5,0.7,6.5,2.2
				C278.3,165.1,279.1,167.1,279.1,169.8z M275.3,169.9c0-3.7-1.6-5.5-4.9-5.5h-1.9v11.1h1.6C273.6,175.5,275.3,173.6,275.3,169.9z"
				/>
			<path class="st2" d="M288,168.4l3.6-7h3.9l-5.7,10.4v6.7h-3.6V172l-5.7-10.6h3.9L288,168.4z"/>
			<path class="st2" d="M317.8,178.5h-3.6v-7.4h-6.8v7.4h-3.6v-17.1h3.6v6.7h6.8v-6.7h3.6V178.5z"/>
			<path class="st2" d="M332,178.5h-9.8v-17.1h9.8v3h-6.2v3.8h5.8v3h-5.8v4.4h6.2V178.5z"/>
			<path class="st2" d="M339.2,171.9v6.6h-3.6v-17.1h5c2.3,0,4,0.4,5.2,1.3c1.1,0.8,1.7,2.1,1.7,3.9c0,1-0.3,1.9-0.8,2.7
				c-0.6,0.8-1.3,1.4-2.4,1.8c2.6,3.8,4.2,6.3,5,7.4h-4l-4.1-6.6H339.2z M339.2,169h1.2c1.1,0,2-0.2,2.5-0.6c0.5-0.4,0.8-1,0.8-1.8
				c0-0.8-0.3-1.4-0.8-1.7c-0.6-0.3-1.4-0.5-2.6-0.5h-1.1V169z"/>
			<path class="st2" d="M361.2,178.5h-9.8v-17.1h9.8v3H355v3.8h5.8v3H355v4.4h6.2V178.5z"/>
			<path class="st2" d="M365.8,172.8V172c0-0.7,0.2-1.4,0.5-2c0.3-0.6,0.9-1.1,1.8-1.8c0.8-0.6,1.4-1.1,1.6-1.4
				c0.3-0.4,0.4-0.8,0.4-1.2c0-0.5-0.2-0.9-0.6-1.2c-0.4-0.3-0.9-0.4-1.6-0.4c-1.2,0-2.5,0.4-4,1.1l-1.3-2.6c1.7-1,3.6-1.5,5.5-1.5
				c1.6,0,2.9,0.4,3.8,1.2c0.9,0.8,1.4,1.8,1.4,3.1c0,0.9-0.2,1.6-0.6,2.2c-0.4,0.6-1.1,1.3-2.2,2.1c-0.7,0.6-1.2,1-1.4,1.3
				c-0.2,0.3-0.3,0.7-0.3,1.1v0.7H365.8z M365.5,176.8c0-0.7,0.2-1.1,0.5-1.5c0.4-0.3,0.9-0.5,1.5-0.5c0.6,0,1.1,0.2,1.5,0.5
				c0.4,0.3,0.5,0.8,0.5,1.5c0,0.6-0.2,1.1-0.5,1.5c-0.4,0.4-0.9,0.5-1.5,0.5c-0.7,0-1.2-0.2-1.5-0.5
				C365.7,177.9,365.5,177.5,365.5,176.8z"/>
			<path class="st2" d="M382.4,178.5v-17.1h3.6v17.1H382.4z"/>
			<path class="st2" d="M400.1,178.5h-3.6v-17.1h9.8v3h-6.2v4.4h5.8v3h-5.8V178.5z"/>
			<path class="st2" d="M419.6,178.5h-9.8v-17.1h9.8v3h-6.2v3.8h5.8v3h-5.8v4.4h6.2V178.5z"/>
			<path class="st2" d="M433,178.5h-9.8v-17.1h9.8v3h-6.2v3.8h5.8v3h-5.8v4.4h6.2V178.5z"/>
			<path class="st2" d="M436.5,178.5v-17.1h3.6v14.1h6.9v3H436.5z"/>
			<path class="st2" d="M110.7,197.2l3.6-7h3.9l-5.7,10.4v6.7h-3.6v-6.5l-5.7-10.6h3.9L110.7,197.2z"/>
			<path class="st2" d="M135.9,198.7c0,2.8-0.7,5-2.1,6.5c-1.4,1.5-3.4,2.3-6,2.3c-2.6,0-4.6-0.8-6-2.3c-1.4-1.5-2.1-3.7-2.1-6.5
				c0-2.8,0.7-5,2.1-6.5c1.4-1.5,3.4-2.3,6.1-2.3c2.6,0,4.6,0.8,6,2.3C135.2,193.7,135.9,195.8,135.9,198.7z M123.4,198.7
				c0,1.9,0.4,3.3,1.1,4.3c0.7,1,1.8,1.5,3.3,1.5c2.9,0,4.3-1.9,4.3-5.8c0-3.9-1.4-5.8-4.3-5.8c-1.4,0-2.5,0.5-3.3,1.5
				C123.8,195.3,123.4,196.8,123.4,198.7z"/>
			<path class="st2" d="M153.3,190.1v11.1c0,1.3-0.3,2.4-0.8,3.3c-0.6,1-1.4,1.7-2.5,2.2c-1.1,0.5-2.3,0.8-3.8,0.8
				c-2.2,0-3.9-0.6-5.1-1.7c-1.2-1.1-1.8-2.7-1.8-4.6v-11h3.6v10.5c0,1.3,0.3,2.3,0.8,2.9c0.5,0.6,1.4,0.9,2.6,0.9
				c1.2,0,2-0.3,2.6-0.9c0.5-0.6,0.8-1.6,0.8-2.9v-10.4H153.3z"/>
			<path class="st2" d="M180.4,207.2h-4.1l-2.3-9c-0.1-0.3-0.2-1-0.4-2c-0.2-1-0.3-1.7-0.4-2c0,0.4-0.2,1.1-0.4,2
				c-0.2,0.9-0.3,1.6-0.4,2l-2.3,9H166l-4.4-17.1h3.6l2.2,9.3c0.4,1.7,0.7,3.2,0.8,4.5c0-0.4,0.2-1.1,0.3-2.1
				c0.2-0.9,0.3-1.7,0.5-2.2l2.5-9.6h3.4l2.5,9.6c0.1,0.4,0.2,1.1,0.4,2c0.2,0.9,0.3,1.6,0.4,2.3c0.1-0.6,0.2-1.4,0.4-2.3
				c0.2-0.9,0.3-1.6,0.5-2.2l2.2-9.3h3.6L180.4,207.2z"/>
			<path class="st2" d="M197.4,207.2l-1.2-4.1h-6.2l-1.2,4.1h-3.9l6-17.2h4.4l6.1,17.2H197.4z M195.3,200.1
				c-1.1-3.7-1.8-5.8-1.9-6.3c-0.1-0.5-0.2-0.9-0.3-1.1c-0.3,1-1,3.5-2.2,7.4H195.3z"/>
			<path class="st2" d="M210,207.2h-3.6v-14.1h-4.6v-3h12.9v3H210V207.2z"/>
			<path class="st2" d="M224.6,192.9c-1.4,0-2.4,0.5-3.2,1.5c-0.7,1-1.1,2.5-1.1,4.3c0,3.8,1.4,5.7,4.3,5.7c1.2,0,2.7-0.3,4.4-0.9v3
				c-1.4,0.6-3,0.9-4.7,0.9c-2.5,0-4.4-0.8-5.7-2.3c-1.3-1.5-2-3.7-2-6.5c0-1.8,0.3-3.3,1-4.7c0.6-1.3,1.6-2.4,2.8-3.1
				c1.2-0.7,2.6-1.1,4.3-1.1c1.7,0,3.3,0.4,5,1.2l-1.2,2.9c-0.6-0.3-1.3-0.6-1.9-0.8C225.8,193,225.2,192.9,224.6,192.9z"/>
			<path class="st2" d="M246.6,207.2H243v-7.4h-6.8v7.4h-3.6v-17.1h3.6v6.7h6.8v-6.7h3.6V207.2z"/>
			<path class="st2" d="M250.9,207.2v-17.1h3.6v17.1H250.9z"/>
			<path class="st2" d="M274,207.2h-4.6l-7.4-12.9h-0.1c0.1,2.3,0.2,3.9,0.2,4.9v8h-3.2v-17.1h4.6l7.4,12.8h0.1
				c-0.1-2.2-0.2-3.8-0.2-4.7v-8.1h3.3V207.2z"/>
			<path class="st2" d="M284.8,197.6h6.8v8.9c-1.1,0.4-2.1,0.6-3.1,0.8c-1,0.1-2,0.2-3,0.2c-2.6,0-4.6-0.8-5.9-2.3
				c-1.4-1.5-2-3.7-2-6.5c0-2.8,0.8-4.9,2.4-6.5c1.6-1.5,3.8-2.3,6.6-2.3c1.8,0,3.4,0.4,5.1,1.1l-1.2,2.9c-1.2-0.6-2.5-0.9-3.9-0.9
				c-1.6,0-2.8,0.5-3.8,1.6c-0.9,1.1-1.4,2.5-1.4,4.2c0,1.9,0.4,3.3,1.1,4.3c0.8,1,1.9,1.5,3.3,1.5c0.8,0,1.5-0.1,2.3-0.2v-3.6h-3.2
				V197.6z"/>
			<path class="st2" d="M309.1,207.2l-4.1-13.4h-0.1c0.1,2.7,0.2,4.5,0.2,5.5v8h-3.2v-17.1h4.9l4,13.1h0.1l4.3-13.1h4.9v17.1h-3.4
				v-8.1c0-0.4,0-0.8,0-1.3c0-0.5,0.1-1.8,0.2-4h-0.1l-4.4,13.4H309.1z"/>
			<path class="st2" d="M334.3,207.2h-9.8v-17.1h9.8v3h-6.2v3.8h5.8v3h-5.8v4.4h6.2V207.2z"/>
			<path class="st2" d="M337.1,205.6c0-0.7,0.2-1.1,0.5-1.5c0.4-0.3,0.9-0.5,1.5-0.5c0.6,0,1.1,0.2,1.5,0.5c0.4,0.3,0.5,0.8,0.5,1.5
				c0,0.6-0.2,1.1-0.5,1.5c-0.4,0.4-0.9,0.5-1.5,0.5c-0.7,0-1.2-0.2-1.5-0.5C337.2,206.7,337.1,206.2,337.1,205.6z"/>
			<path class="st2" d="M343.9,205.6c0-0.7,0.2-1.1,0.5-1.5c0.4-0.3,0.9-0.5,1.5-0.5c0.6,0,1.1,0.2,1.5,0.5c0.4,0.3,0.5,0.8,0.5,1.5
				c0,0.6-0.2,1.1-0.5,1.5c-0.4,0.4-0.9,0.5-1.5,0.5c-0.7,0-1.2-0.2-1.5-0.5C344.1,206.7,343.9,206.2,343.9,205.6z"/>
			<path class="st2" d="M350.7,205.6c0-0.7,0.2-1.1,0.5-1.5c0.4-0.3,0.9-0.5,1.5-0.5c0.6,0,1.1,0.2,1.5,0.5c0.4,0.3,0.5,0.8,0.5,1.5
				c0,0.6-0.2,1.1-0.5,1.5c-0.4,0.4-0.9,0.5-1.5,0.5c-0.7,0-1.2-0.2-1.5-0.5C350.9,206.7,350.7,206.2,350.7,205.6z"/>
			<path class="st2" d="M364.6,207.2v-17.1h3.6v17.1H364.6z"/>
			<path class="st2" d="M376.1,207.2h-3.6v-17.1h9.8v3h-6.2v4.4h5.8v3h-5.8V207.2z"/>
			<path class="st2" d="M397.2,197.2l3.6-7h3.9l-5.7,10.4v6.7h-3.6v-6.5l-5.7-10.6h3.9L397.2,197.2z"/>
			<path class="st2" d="M422.3,198.7c0,2.8-0.7,5-2.1,6.5c-1.4,1.5-3.4,2.3-6,2.3c-2.6,0-4.6-0.8-6-2.3c-1.4-1.5-2.1-3.7-2.1-6.5
				c0-2.8,0.7-5,2.1-6.5c1.4-1.5,3.4-2.3,6.1-2.3c2.6,0,4.6,0.8,6,2.3C421.6,193.7,422.3,195.8,422.3,198.7z M409.8,198.7
				c0,1.9,0.4,3.3,1.1,4.3c0.7,1,1.8,1.5,3.3,1.5c2.9,0,4.3-1.9,4.3-5.8c0-3.9-1.4-5.8-4.3-5.8c-1.4,0-2.5,0.5-3.3,1.5
				C410.2,195.3,409.8,196.8,409.8,198.7z"/>
			<path class="st2" d="M439.8,190.1v11.1c0,1.3-0.3,2.4-0.8,3.3c-0.6,1-1.4,1.7-2.5,2.2c-1.1,0.5-2.3,0.8-3.8,0.8
				c-2.2,0-3.9-0.6-5.1-1.7s-1.8-2.7-1.8-4.6v-11h3.6v10.5c0,1.3,0.3,2.3,0.8,2.9c0.5,0.6,1.4,0.9,2.6,0.9c1.2,0,2-0.3,2.6-0.9
				c0.5-0.6,0.8-1.6,0.8-2.9v-10.4H439.8z"/>
			<path class="st2" d="M112.7,221.7c-1.4,0-2.4,0.5-3.2,1.5c-0.7,1-1.1,2.5-1.1,4.3c0,3.8,1.4,5.7,4.3,5.7c1.2,0,2.7-0.3,4.4-0.9v3
				c-1.4,0.6-3,0.9-4.7,0.9c-2.5,0-4.4-0.8-5.7-2.3c-1.3-1.5-2-3.7-2-6.5c0-1.8,0.3-3.3,1-4.7c0.6-1.3,1.6-2.4,2.8-3.1
				c1.2-0.7,2.6-1.1,4.3-1.1c1.7,0,3.3,0.4,5,1.2l-1.2,2.9c-0.6-0.3-1.3-0.6-1.9-0.8C113.9,221.8,113.3,221.7,112.7,221.7z"/>
			<path class="st2" d="M131.1,236l-1.2-4.1h-6.2l-1.2,4.1h-3.9l6-17.2h4.4l6.1,17.2H131.1z M129,228.9c-1.1-3.7-1.8-5.8-1.9-6.3
				c-0.1-0.5-0.2-0.9-0.3-1.1c-0.3,1-1,3.5-2.2,7.4H129z"/>
			<path class="st2" d="M152.4,236h-4.6l-7.4-12.9h-0.1c0.1,2.3,0.2,3.9,0.2,4.9v8h-3.2v-17.1h4.6l7.4,12.8h0.1
				c-0.1-2.2-0.2-3.8-0.2-4.7v-8.1h3.3V236z"/>
			<path class="st2" d="M163.3,236h-3.6v-14.1H155v-3h12.9v3h-4.6V236z"/>
			<path class="st2" d="M190.8,236h-3.6v-7.4h-6.8v7.4h-3.6v-17.1h3.6v6.7h6.8v-6.7h3.6V236z"/>
			<path class="st2" d="M204.9,236h-9.8v-17.1h9.8v3h-6.2v3.8h5.8v3h-5.8v4.4h6.2V236z"/>
			<path class="st2" d="M208.5,236v-17.1h3.6V233h6.9v3H208.5z"/>
			<path class="st2" d="M233.8,224.2c0,1.8-0.6,3.2-1.7,4.2c-1.1,1-2.8,1.5-4.9,1.5h-1.6v6.1H222v-17.1h5.5c2.1,0,3.7,0.4,4.7,1.3
				C233.3,221.1,233.8,222.4,233.8,224.2z M225.7,226.9h1.2c1.1,0,1.9-0.2,2.5-0.7c0.6-0.4,0.8-1.1,0.8-1.9c0-0.8-0.2-1.5-0.7-1.9
				c-0.5-0.4-1.2-0.6-2.2-0.6h-1.6V226.9z"/>
			<path class="st2" d="M250.5,236l-4.1-13.4h-0.1c0.1,2.7,0.2,4.5,0.2,5.5v8h-3.2v-17.1h4.9l4,13.1h0.1l4.3-13.1h4.9V236h-3.4v-8.1
				c0-0.4,0-0.8,0-1.3c0-0.5,0.1-1.8,0.2-4h-0.1l-4.4,13.4H250.5z"/>
			<path class="st2" d="M275.7,236h-9.8v-17.1h9.8v3h-6.2v3.8h5.8v3h-5.8v4.4h6.2V236z"/>
			<path class="st2" d="M282.5,233.5c-0.4,1.6-1.1,3.4-2.1,5.6h-2.6c0.5-2.1,0.9-4,1.2-5.9h3.3L282.5,233.5z"/>
			<path class="st2" d="M302.9,236l-1.2-4.1h-6.2l-1.2,4.1h-3.9l6-17.2h4.4l6.1,17.2H302.9z M300.8,228.9c-1.1-3.7-1.8-5.8-1.9-6.3
				c-0.1-0.5-0.2-0.9-0.3-1.1c-0.3,1-1,3.5-2.2,7.4H300.8z"/>
			<path class="st2" d="M315.6,236H312v-14.1h-4.6v-3h12.9v3h-4.6V236z"/>
			<path class="st2" d="M329.1,236v-17.1h3.6V233h6.9v3H329.1z"/>
			<path class="st2" d="M352.5,236h-9.8v-17.1h9.8v3h-6.2v3.8h5.8v3h-5.8v4.4h6.2V236z"/>
			<path class="st2" d="M366.5,236l-1.2-4.1H359l-1.2,4.1h-3.9l6-17.2h4.4l6.1,17.2H366.5z M364.4,228.9c-1.1-3.7-1.8-5.8-1.9-6.3
				c-0.1-0.5-0.2-0.9-0.3-1.1c-0.3,1-1,3.5-2.2,7.4H364.4z"/>
			<path class="st2" d="M382.6,231.2c0,1.5-0.6,2.8-1.7,3.6c-1.1,0.9-2.7,1.3-4.6,1.3c-1.8,0-3.4-0.3-4.8-1v-3.4
				c1.2,0.5,2.1,0.9,2.9,1.1c0.8,0.2,1.5,0.3,2.2,0.3c0.8,0,1.4-0.2,1.8-0.5c0.4-0.3,0.6-0.8,0.6-1.4c0-0.3-0.1-0.6-0.3-0.9
				c-0.2-0.3-0.5-0.5-0.8-0.8c-0.4-0.2-1.1-0.6-2.2-1.2c-1-0.5-1.8-1-2.4-1.4c-0.5-0.5-0.9-1-1.3-1.6c-0.3-0.6-0.5-1.3-0.5-2.1
				c0-1.5,0.5-2.7,1.5-3.6c1-0.9,2.4-1.3,4.3-1.3c0.9,0,1.7,0.1,2.5,0.3c0.8,0.2,1.7,0.5,2.5,0.9l-1.2,2.8c-0.9-0.4-1.7-0.6-2.3-0.8
				c-0.6-0.1-1.2-0.2-1.8-0.2c-0.7,0-1.2,0.2-1.6,0.5c-0.4,0.3-0.5,0.7-0.5,1.3c0,0.3,0.1,0.6,0.2,0.8c0.1,0.2,0.4,0.5,0.7,0.7
				c0.3,0.2,1.1,0.6,2.3,1.2c1.6,0.8,2.7,1.5,3.3,2.3C382.3,229.2,382.6,230.1,382.6,231.2z"/>
			<path class="st2" d="M392.3,236h-3.6v-14.1h-4.6v-3H397v3h-4.6V236z"/>
			<path class="st2" d="M398.8,234.3c0-0.7,0.2-1.1,0.5-1.5c0.4-0.3,0.9-0.5,1.5-0.5c0.6,0,1.1,0.2,1.5,0.5c0.4,0.3,0.5,0.8,0.5,1.5
				c0,0.6-0.2,1.1-0.5,1.5c-0.4,0.4-0.9,0.5-1.5,0.5c-0.7,0-1.2-0.2-1.5-0.5C399,235.4,398.8,234.9,398.8,234.3z"/>
			<path class="st2" d="M405.7,234.3c0-0.7,0.2-1.1,0.5-1.5c0.4-0.3,0.9-0.5,1.5-0.5c0.6,0,1.1,0.2,1.5,0.5c0.4,0.3,0.5,0.8,0.5,1.5
				c0,0.6-0.2,1.1-0.5,1.5c-0.4,0.4-0.9,0.5-1.5,0.5c-0.7,0-1.2-0.2-1.5-0.5C405.8,235.4,405.7,234.9,405.7,234.3z"/>
			<path class="st2" d="M412.5,234.3c0-0.7,0.2-1.1,0.5-1.5c0.4-0.3,0.9-0.5,1.5-0.5c0.6,0,1.1,0.2,1.5,0.5c0.4,0.3,0.5,0.8,0.5,1.5
				c0,0.6-0.2,1.1-0.5,1.5c-0.4,0.4-0.9,0.5-1.5,0.5c-0.7,0-1.2-0.2-1.5-0.5C412.7,235.4,412.5,234.9,412.5,234.3z"/>
			<path class="st2" d="M112.7,250.4c-1.4,0-2.4,0.5-3.2,1.5c-0.7,1-1.1,2.5-1.1,4.3c0,3.8,1.4,5.7,4.3,5.7c1.2,0,2.7-0.3,4.4-0.9v3
				c-1.4,0.6-3,0.9-4.7,0.9c-2.5,0-4.4-0.8-5.7-2.3c-1.3-1.5-2-3.7-2-6.5c0-1.8,0.3-3.3,1-4.7c0.6-1.3,1.6-2.4,2.8-3.1
				c1.2-0.7,2.6-1.1,4.3-1.1c1.7,0,3.3,0.4,5,1.2l-1.2,2.9c-0.6-0.3-1.3-0.6-1.9-0.8C113.9,250.5,113.3,250.4,112.7,250.4z"/>
			<path class="st2" d="M136.2,256.1c0,2.8-0.7,5-2.1,6.5c-1.4,1.5-3.4,2.3-6,2.3s-4.6-0.8-6-2.3c-1.4-1.5-2.1-3.7-2.1-6.5
				c0-2.8,0.7-5,2.1-6.5c1.4-1.5,3.4-2.3,6.1-2.3c2.6,0,4.6,0.8,6,2.3C135.5,251.1,136.2,253.3,136.2,256.1z M123.7,256.1
				c0,1.9,0.4,3.3,1.1,4.3c0.7,1,1.8,1.5,3.3,1.5c2.9,0,4.3-1.9,4.3-5.8c0-3.9-1.4-5.8-4.3-5.8c-1.4,0-2.5,0.5-3.3,1.5
				C124.1,252.8,123.7,254.2,123.7,256.1z"/>
			<path class="st2" d="M153.7,247.6v11.1c0,1.3-0.3,2.4-0.8,3.3c-0.6,1-1.4,1.7-2.5,2.2c-1.1,0.5-2.3,0.8-3.8,0.8
				c-2.2,0-3.9-0.6-5.1-1.7s-1.8-2.7-1.8-4.6v-11h3.6v10.5c0,1.3,0.3,2.3,0.8,2.9c0.5,0.6,1.4,0.9,2.6,0.9c1.2,0,2-0.3,2.6-0.9
				c0.5-0.6,0.8-1.6,0.8-2.9v-10.4H153.7z"/>
			<path class="st2" d="M157.8,264.7v-17.1h3.6v14.1h6.9v3H157.8z"/>
			<path class="st2" d="M185.6,256c0,2.8-0.8,5-2.4,6.5c-1.6,1.5-3.9,2.2-6.9,2.2h-4.8v-17.1h5.4c2.8,0,5,0.7,6.5,2.2
				C184.8,251.3,185.6,253.4,185.6,256z M181.8,256.1c0-3.7-1.6-5.5-4.9-5.5H175v11.1h1.6C180,261.7,181.8,259.9,181.8,256.1z"/>
			<path class="st2" d="M200.6,254.7l3.6-7h3.9l-5.7,10.4v6.7h-3.6v-6.5l-5.7-10.6h3.9L200.6,254.7z"/>
			<path class="st2" d="M225.8,256.1c0,2.8-0.7,5-2.1,6.5c-1.4,1.5-3.4,2.3-6,2.3s-4.6-0.8-6-2.3c-1.4-1.5-2.1-3.7-2.1-6.5
				c0-2.8,0.7-5,2.1-6.5c1.4-1.5,3.4-2.3,6.1-2.3c2.6,0,4.6,0.8,6,2.3C225.1,251.1,225.8,253.3,225.8,256.1z M213.3,256.1
				c0,1.9,0.4,3.3,1.1,4.3c0.7,1,1.8,1.5,3.3,1.5c2.9,0,4.3-1.9,4.3-5.8c0-3.9-1.4-5.8-4.3-5.8c-1.4,0-2.5,0.5-3.3,1.5
				C213.7,252.8,213.3,254.2,213.3,256.1z"/>
			<path class="st2" d="M243.3,247.6v11.1c0,1.3-0.3,2.4-0.8,3.3c-0.6,1-1.4,1.7-2.5,2.2c-1.1,0.5-2.3,0.8-3.8,0.8
				c-2.2,0-3.9-0.6-5.1-1.7c-1.2-1.1-1.8-2.7-1.8-4.6v-11h3.6v10.5c0,1.3,0.3,2.3,0.8,2.9c0.5,0.6,1.4,0.9,2.6,0.9
				c1.2,0,2-0.3,2.6-0.9c0.5-0.6,0.8-1.6,0.8-2.9v-10.4H243.3z"/>
			<path class="st2" d="M263.8,260c0,1.5-0.6,2.8-1.7,3.6c-1.1,0.9-2.7,1.3-4.6,1.3c-1.8,0-3.4-0.3-4.8-1v-3.4
				c1.2,0.5,2.1,0.9,2.9,1.1c0.8,0.2,1.5,0.3,2.2,0.3c0.8,0,1.4-0.2,1.8-0.5c0.4-0.3,0.6-0.8,0.6-1.4c0-0.3-0.1-0.6-0.3-0.9
				c-0.2-0.3-0.5-0.5-0.8-0.8c-0.4-0.2-1.1-0.6-2.2-1.2c-1-0.5-1.8-1-2.4-1.4c-0.5-0.5-0.9-1-1.3-1.6c-0.3-0.6-0.5-1.3-0.5-2.1
				c0-1.5,0.5-2.7,1.5-3.6c1-0.9,2.4-1.3,4.3-1.3c0.9,0,1.7,0.1,2.5,0.3c0.8,0.2,1.7,0.5,2.5,0.9l-1.2,2.8c-0.9-0.4-1.7-0.6-2.3-0.8
				c-0.6-0.1-1.2-0.2-1.8-0.2c-0.7,0-1.2,0.2-1.6,0.5c-0.4,0.3-0.5,0.7-0.5,1.3c0,0.3,0.1,0.6,0.2,0.8c0.1,0.2,0.4,0.5,0.7,0.7
				c0.3,0.2,1.1,0.6,2.3,1.2c1.6,0.8,2.7,1.5,3.3,2.3C263.5,257.9,263.8,258.9,263.8,260z"/>
			<path class="st2" d="M273.4,264.7h-3.6v-14.1h-4.6v-3h12.9v3h-4.6V264.7z"/>
			<path class="st2" d="M291.2,264.7l-1.2-4.1h-6.2l-1.2,4.1h-3.9l6-17.2h4.4l6.1,17.2H291.2z M289.1,257.6
				c-1.1-3.7-1.8-5.8-1.9-6.3c-0.1-0.5-0.2-0.9-0.3-1.1c-0.3,1-1,3.5-2.2,7.4H289.1z"/>
			<path class="st2" d="M302.6,254.7l3.6-7h3.9l-5.7,10.4v6.7h-3.6v-6.5l-5.7-10.6h3.9L302.6,254.7z"/>
			<path class="st2" d="M335.1,264.7h-4.1l-2.3-9c-0.1-0.3-0.2-1-0.4-2c-0.2-1-0.3-1.7-0.4-2c0,0.4-0.2,1.1-0.4,2
				c-0.2,0.9-0.3,1.6-0.4,2l-2.3,9h-4.1l-4.4-17.1h3.6l2.2,9.3c0.4,1.7,0.7,3.2,0.8,4.5c0-0.4,0.2-1.1,0.3-2.1
				c0.2-0.9,0.3-1.7,0.5-2.2l2.5-9.6h3.4l2.5,9.6c0.1,0.4,0.2,1.1,0.4,2c0.2,0.9,0.3,1.6,0.4,2.3c0.1-0.6,0.2-1.4,0.4-2.3
				c0.2-0.9,0.3-1.6,0.5-2.2l2.2-9.3h3.6L335.1,264.7z"/>
			<path class="st2" d="M341.6,264.7v-17.1h3.6v17.1H341.6z"/>
			<path class="st2" d="M356.1,264.7h-3.6v-14.1h-4.6v-3h12.9v3h-4.6V264.7z"/>
			<path class="st2" d="M377.4,264.7h-3.6v-7.4H367v7.4h-3.6v-17.1h3.6v6.7h6.8v-6.7h3.6V264.7z"/>
			<path class="st2" d="M395.2,264.7l-4.1-13.4h-0.1c0.1,2.7,0.2,4.5,0.2,5.5v8h-3.2v-17.1h4.9l4,13.1h0.1l4.3-13.1h4.9v17.1h-3.4
				v-8.1c0-0.4,0-0.8,0-1.3c0-0.5,0.1-1.8,0.2-4h-0.1l-4.4,13.4H395.2z"/>
			<path class="st2" d="M420.3,264.7h-9.8v-17.1h9.8v3h-6.2v3.8h5.8v3h-5.8v4.4h6.2V264.7z"/>
			<path class="st2" d="M423.1,263c0-0.7,0.2-1.1,0.5-1.5c0.4-0.3,0.9-0.5,1.5-0.5c0.6,0,1.1,0.2,1.5,0.5c0.4,0.3,0.5,0.8,0.5,1.5
				c0,0.6-0.2,1.1-0.5,1.5c-0.4,0.4-0.9,0.5-1.5,0.5c-0.7,0-1.2-0.2-1.5-0.5C423.3,264.2,423.1,263.7,423.1,263z"/>
			<path class="st2" d="M437,264.7v-17.1h3.6v17.1H437z"/>
			<path class="st2" d="M115.9,293.5l-1.2-4.1h-6.2l-1.2,4.1h-3.9l6-17.2h4.4l6.1,17.2H115.9z M113.8,286.4
				c-1.1-3.7-1.8-5.8-1.9-6.3c-0.1-0.5-0.2-0.9-0.3-1.1c-0.3,1-1,3.5-2.2,7.4H113.8z"/>
			<path class="st2" d="M129.2,293.5l-4.1-13.4H125c0.1,2.7,0.2,4.5,0.2,5.5v8h-3.2v-17.1h4.9l4,13.1h0.1l4.3-13.1h4.9v17.1h-3.4
				v-8.1c0-0.4,0-0.8,0-1.3c0-0.5,0.1-1.8,0.2-4h-0.1l-4.4,13.4H129.2z"/>
			<path class="st2" d="M160.8,288.7c0,1.5-0.6,2.8-1.7,3.6c-1.1,0.9-2.7,1.3-4.6,1.3c-1.8,0-3.4-0.3-4.8-1v-3.4
				c1.2,0.5,2.1,0.9,2.9,1.1c0.8,0.2,1.5,0.3,2.2,0.3c0.8,0,1.4-0.2,1.8-0.5c0.4-0.3,0.6-0.8,0.6-1.4c0-0.3-0.1-0.6-0.3-0.9
				c-0.2-0.3-0.5-0.5-0.8-0.8c-0.4-0.2-1.1-0.6-2.2-1.2c-1-0.5-1.8-1-2.4-1.4c-0.5-0.5-0.9-1-1.3-1.6c-0.3-0.6-0.5-1.3-0.5-2.1
				c0-1.5,0.5-2.7,1.5-3.6c1-0.9,2.4-1.3,4.3-1.3c0.9,0,1.7,0.1,2.5,0.3c0.8,0.2,1.7,0.5,2.5,0.9l-1.2,2.8c-0.9-0.4-1.7-0.6-2.3-0.8
				c-0.6-0.1-1.2-0.2-1.8-0.2c-0.7,0-1.2,0.2-1.6,0.5c-0.4,0.3-0.5,0.7-0.5,1.3c0,0.3,0.1,0.6,0.2,0.8c0.1,0.2,0.4,0.5,0.7,0.7
				c0.3,0.2,1.1,0.6,2.3,1.2c1.6,0.8,2.7,1.5,3.3,2.3C160.5,286.7,160.8,287.6,160.8,288.7z"/>
			<path class="st2" d="M171.2,279.1c-1.4,0-2.4,0.5-3.2,1.5c-0.7,1-1.1,2.5-1.1,4.3c0,3.8,1.4,5.7,4.3,5.7c1.2,0,2.7-0.3,4.4-0.9v3
				c-1.4,0.6-3,0.9-4.7,0.9c-2.5,0-4.4-0.8-5.7-2.3c-1.3-1.5-2-3.7-2-6.5c0-1.8,0.3-3.3,1-4.7c0.6-1.3,1.6-2.4,2.8-3.1
				c1.2-0.7,2.6-1.1,4.3-1.1c1.7,0,3.3,0.4,5,1.2l-1.2,2.9c-0.6-0.3-1.3-0.6-1.9-0.8C172.5,279.2,171.8,279.1,171.2,279.1z"/>
			<path class="st2" d="M189.7,293.5l-1.2-4.1h-6.2l-1.2,4.1H177l6-17.2h4.4l6.1,17.2H189.7z M187.6,286.4c-1.1-3.7-1.8-5.8-1.9-6.3
				c-0.1-0.5-0.2-0.9-0.3-1.1c-0.3,1-1,3.5-2.2,7.4H187.6z"/>
			<path class="st2" d="M199.4,286.9v6.6h-3.6v-17.1h5c2.3,0,4,0.4,5.2,1.3c1.1,0.8,1.7,2.1,1.7,3.9c0,1-0.3,1.9-0.8,2.7
				c-0.6,0.8-1.3,1.4-2.4,1.8c2.6,3.8,4.2,6.3,5,7.4h-4l-4.1-6.6H199.4z M199.4,284h1.2c1.1,0,2-0.2,2.5-0.6c0.5-0.4,0.8-1,0.8-1.8
				c0-0.8-0.3-1.4-0.8-1.7c-0.6-0.3-1.4-0.5-2.6-0.5h-1.1V284z"/>
			<path class="st2" d="M221.4,293.5h-9.8v-17.1h9.8v3h-6.2v3.8h5.8v3h-5.8v4.4h6.2V293.5z"/>
			<path class="st2" d="M239.1,284.7c0,2.8-0.8,5-2.4,6.5c-1.6,1.5-3.9,2.2-6.9,2.2H225v-17.1h5.4c2.8,0,5,0.7,6.5,2.2
				C238.4,280,239.1,282.1,239.1,284.7z M235.4,284.8c0-3.7-1.6-5.5-4.9-5.5h-1.9v11.1h1.6C233.6,290.5,235.4,288.6,235.4,284.8z"/>
			<path class="st2" d="M241.9,291.8c0-0.7,0.2-1.1,0.5-1.5c0.4-0.3,0.9-0.5,1.5-0.5c0.6,0,1.1,0.2,1.5,0.5c0.4,0.3,0.5,0.8,0.5,1.5
				c0,0.6-0.2,1.1-0.5,1.5c-0.4,0.4-0.9,0.5-1.5,0.5c-0.7,0-1.2-0.2-1.5-0.5C242.1,292.9,241.9,292.4,241.9,291.8z"/>
			<path class="st2" d="M248.7,291.8c0-0.7,0.2-1.1,0.5-1.5c0.4-0.3,0.9-0.5,1.5-0.5c0.6,0,1.1,0.2,1.5,0.5c0.4,0.3,0.5,0.8,0.5,1.5
				c0,0.6-0.2,1.1-0.5,1.5c-0.4,0.4-0.9,0.5-1.5,0.5c-0.7,0-1.2-0.2-1.5-0.5C248.9,292.9,248.7,292.4,248.7,291.8z"/>
			<path class="st2" d="M273,293.5l-1.2-4.1h-6.2l-1.2,4.1h-3.9l6-17.2h4.4l6.1,17.2H273z M270.9,286.4c-1.1-3.7-1.8-5.8-1.9-6.3
				c-0.1-0.5-0.2-0.9-0.3-1.1c-0.3,1-1,3.5-2.2,7.4H270.9z"/>
			<path class="st2" d="M294.3,293.5h-4.6l-7.4-12.9h-0.1c0.1,2.3,0.2,3.9,0.2,4.9v8h-3.2v-17.1h4.6l7.4,12.8h0.1
				c-0.1-2.2-0.2-3.8-0.2-4.7v-8.1h3.3V293.5z"/>
			<path class="st2" d="M312.7,284.7c0,2.8-0.8,5-2.4,6.5c-1.6,1.5-3.9,2.2-6.9,2.2h-4.8v-17.1h5.4c2.8,0,5,0.7,6.5,2.2
				C312,280,312.7,282.1,312.7,284.7z M309,284.8c0-3.7-1.6-5.5-4.9-5.5h-1.9v11.1h1.6C307.2,290.5,309,288.6,309,284.8z"/>
			<path class="st2" d="M322.5,293.5v-17.1h3.6v17.1H322.5z"/>
			<path class="st2" d="M351.8,293.5h-4.6l-7.4-12.9h-0.1c0.1,2.3,0.2,3.9,0.2,4.9v8h-3.2v-17.1h4.6l7.4,12.8h0.1
				c-0.1-2.2-0.2-3.8-0.2-4.7v-8.1h3.3V293.5z"/>
			<path class="st2" d="M366,293.5h-9.8v-17.1h9.8v3h-6.2v3.8h5.8v3h-5.8v4.4h6.2V293.5z"/>
			<path class="st2" d="M379.4,293.5h-9.8v-17.1h9.8v3h-6.2v3.8h5.8v3h-5.8v4.4h6.2V293.5z"/>
			<path class="st2" d="M397.1,284.7c0,2.8-0.8,5-2.4,6.5c-1.6,1.5-3.9,2.2-6.9,2.2H383v-17.1h5.4c2.8,0,5,0.7,6.5,2.2
				C396.4,280,397.1,282.1,397.1,284.7z M393.4,284.8c0-3.7-1.6-5.5-4.9-5.5h-1.9v11.1h1.6C391.6,290.5,393.4,288.6,393.4,284.8z"/>
			<path class="st2" d="M417,288.7c0,1.5-0.6,2.8-1.7,3.6c-1.1,0.9-2.7,1.3-4.6,1.3c-1.8,0-3.4-0.3-4.8-1v-3.4
				c1.2,0.5,2.1,0.9,2.9,1.1c0.8,0.2,1.5,0.3,2.2,0.3c0.8,0,1.4-0.2,1.8-0.5c0.4-0.3,0.6-0.8,0.6-1.4c0-0.3-0.1-0.6-0.3-0.9
				c-0.2-0.3-0.5-0.5-0.8-0.8c-0.4-0.2-1.1-0.6-2.2-1.2c-1-0.5-1.8-1-2.4-1.4c-0.5-0.5-0.9-1-1.3-1.6c-0.3-0.6-0.5-1.3-0.5-2.1
				c0-1.5,0.5-2.7,1.5-3.6c1-0.9,2.4-1.3,4.3-1.3c0.9,0,1.7,0.1,2.5,0.3c0.8,0.2,1.7,0.5,2.5,0.9l-1.2,2.8c-0.9-0.4-1.7-0.6-2.3-0.8
				c-0.6-0.1-1.2-0.2-1.8-0.2c-0.7,0-1.2,0.2-1.6,0.5c-0.4,0.3-0.5,0.7-0.5,1.3c0,0.3,0.1,0.6,0.2,0.8c0.1,0.2,0.4,0.5,0.7,0.7
				c0.3,0.2,1.1,0.6,2.3,1.2c1.6,0.8,2.7,1.5,3.3,2.3C416.7,286.7,417,287.6,417,288.7z"/>
			<path class="st2" d="M435.6,284.9c0,2.8-0.7,5-2.1,6.5c-1.4,1.5-3.4,2.3-6,2.3c-2.6,0-4.6-0.8-6-2.3c-1.4-1.5-2.1-3.7-2.1-6.5
				c0-2.8,0.7-5,2.1-6.5c1.4-1.5,3.4-2.3,6.1-2.3c2.6,0,4.6,0.8,6,2.3C434.9,279.9,435.6,282.1,435.6,284.9z M423.1,284.9
				c0,1.9,0.4,3.3,1.1,4.3c0.7,1,1.8,1.5,3.3,1.5c2.9,0,4.3-1.9,4.3-5.8c0-3.9-1.4-5.8-4.3-5.8c-1.4,0-2.5,0.5-3.3,1.5
				C423.5,281.5,423.1,283,423.1,284.9z"/>
			<path class="st2" d="M446.4,293.5l-4.1-13.4h-0.1c0.1,2.7,0.2,4.5,0.2,5.5v8h-3.2v-17.1h4.9l4,13.1h0.1l4.3-13.1h4.9v17.1h-3.4
				v-8.1c0-0.4,0-0.8,0-1.3c0-0.5,0.1-1.8,0.2-4h-0.1l-4.4,13.4H446.4z"/>
			<path class="st2" d="M471.6,293.5h-9.8v-17.1h9.8v3h-6.2v3.8h5.8v3h-5.8v4.4h6.2V293.5z"/>
			<path class="st2" d="M473.7,288.5v-2.9h6.3v2.9H473.7z"/>
			<path class="st2" d="M120.9,313.6c0,2.8-0.7,5-2.1,6.5c-1.4,1.5-3.4,2.3-6,2.3s-4.6-0.8-6-2.3c-1.4-1.5-2.1-3.7-2.1-6.5
				c0-2.8,0.7-5,2.1-6.5c1.4-1.5,3.4-2.3,6.1-2.3c2.6,0,4.6,0.8,6,2.3C120.2,308.6,120.9,310.8,120.9,313.6z M108.5,313.6
				c0,1.9,0.4,3.3,1.1,4.3c0.7,1,1.8,1.5,3.3,1.5c2.9,0,4.3-1.9,4.3-5.8c0-3.9-1.4-5.8-4.3-5.8c-1.4,0-2.5,0.5-3.3,1.5
				C108.8,310.3,108.5,311.7,108.5,313.6z"/>
			<path class="st2" d="M139.6,322.2H135l-7.4-12.9h-0.1c0.1,2.3,0.2,3.9,0.2,4.9v8h-3.2v-17.1h4.6l7.4,12.8h0.1
				c-0.1-2.2-0.2-3.8-0.2-4.7v-8.1h3.3V322.2z"/>
			<path class="st2" d="M153.8,322.2H144v-17.1h9.8v3h-6.2v3.8h5.8v3h-5.8v4.4h6.2V322.2z"/>
			<path class="st2" d="M178.8,322.2h-4.6l-7.4-12.9h-0.1c0.1,2.3,0.2,3.9,0.2,4.9v8h-3.2v-17.1h4.6l7.4,12.8h0.1
				c-0.1-2.2-0.2-3.8-0.2-4.7v-8.1h3.3V322.2z"/>
			<path class="st2" d="M192.9,322.2h-9.8v-17.1h9.8v3h-6.2v3.8h5.8v3h-5.8v4.4h6.2V322.2z"/>
			<path class="st2" d="M206.9,322.2l-1.2-4.1h-6.2l-1.2,4.1h-3.9l6-17.2h4.4l6.1,17.2H206.9z M204.8,315.1
				c-1.1-3.7-1.8-5.8-1.9-6.3c-0.1-0.5-0.2-0.9-0.3-1.1c-0.3,1-1,3.5-2.2,7.4H204.8z"/>
			<path class="st2" d="M216.6,315.6v6.6H213v-17.1h5c2.3,0,4,0.4,5.2,1.3c1.1,0.8,1.7,2.1,1.7,3.9c0,1-0.3,1.9-0.8,2.7
				c-0.6,0.8-1.3,1.4-2.4,1.8c2.6,3.8,4.2,6.3,5,7.4h-4l-4.1-6.6H216.6z M216.6,312.7h1.2c1.1,0,2-0.2,2.5-0.6
				c0.5-0.4,0.8-1,0.8-1.8c0-0.8-0.3-1.4-0.8-1.7c-0.6-0.3-1.4-0.5-2.6-0.5h-1.1V312.7z"/>
			<path class="st2" d="M241.6,322.2H238v-14.1h-4.6v-3h12.9v3h-4.6V322.2z"/>
			<path class="st2" d="M264.4,313.6c0,2.8-0.7,5-2.1,6.5c-1.4,1.5-3.4,2.3-6,2.3c-2.6,0-4.6-0.8-6-2.3c-1.4-1.5-2.1-3.7-2.1-6.5
				c0-2.8,0.7-5,2.1-6.5c1.4-1.5,3.4-2.3,6.1-2.3c2.6,0,4.6,0.8,6,2.3C263.7,308.6,264.4,310.8,264.4,313.6z M251.9,313.6
				c0,1.9,0.4,3.3,1.1,4.3c0.7,1,1.8,1.5,3.3,1.5c2.9,0,4.3-1.9,4.3-5.8c0-3.9-1.4-5.8-4.3-5.8c-1.4,0-2.5,0.5-3.3,1.5
				C252.3,310.3,251.9,311.7,251.9,313.6z"/>
			<path class="st2" d="M277.8,322.2h-3.6v-17.1h9.8v3h-6.2v4.4h5.8v3h-5.8V322.2z"/>
			<path class="st2" d="M297.8,322.2l-1.2-4.1h-6.2l-1.2,4.1h-3.9l6-17.2h4.4l6.1,17.2H297.8z M295.7,315.1
				c-1.1-3.7-1.8-5.8-1.9-6.3c-0.1-0.5-0.2-0.9-0.3-1.1c-0.3,1-1,3.5-2.2,7.4H295.7z"/>
			<path class="st2" d="M311.1,307.9c-1.4,0-2.4,0.5-3.2,1.5c-0.7,1-1.1,2.5-1.1,4.3c0,3.8,1.4,5.7,4.3,5.7c1.2,0,2.7-0.3,4.4-0.9v3
				c-1.4,0.6-3,0.9-4.7,0.9c-2.5,0-4.4-0.8-5.7-2.3c-1.3-1.5-2-3.7-2-6.5c0-1.8,0.3-3.3,1-4.7c0.6-1.3,1.6-2.4,2.8-3.1
				c1.2-0.7,2.6-1.1,4.3-1.1c1.7,0,3.3,0.4,5,1.2L315,309c-0.6-0.3-1.3-0.6-1.9-0.8C312.4,308,311.7,307.9,311.1,307.9z"/>
			<path class="st2" d="M329,322.2h-9.8v-17.1h9.8v3h-6.2v3.8h5.8v3h-5.8v4.4h6.2V322.2z"/>
			<path class="st2" d="M345.3,322.2h-3.6v-14.1h-4.6v-3H350v3h-4.6V322.2z"/>
			<path class="st2" d="M366.6,322.2H363v-7.4h-6.8v7.4h-3.6v-17.1h3.6v6.7h6.8v-6.7h3.6V322.2z"/>
			<path class="st2" d="M370.9,322.2v-17.1h3.6v17.1H370.9z"/>
			<path class="st2" d="M389,317.5c0,1.5-0.6,2.8-1.7,3.6c-1.1,0.9-2.7,1.3-4.6,1.3c-1.8,0-3.4-0.3-4.8-1V318
				c1.2,0.5,2.1,0.9,2.9,1.1c0.8,0.2,1.5,0.3,2.2,0.3c0.8,0,1.4-0.2,1.8-0.5c0.4-0.3,0.6-0.8,0.6-1.4c0-0.3-0.1-0.6-0.3-0.9
				c-0.2-0.3-0.5-0.5-0.8-0.8c-0.4-0.2-1.1-0.6-2.2-1.2c-1-0.5-1.8-1-2.4-1.4c-0.5-0.5-0.9-1-1.3-1.6c-0.3-0.6-0.5-1.3-0.5-2.1
				c0-1.5,0.5-2.7,1.5-3.6c1-0.9,2.4-1.3,4.3-1.3c0.9,0,1.7,0.1,2.5,0.3c0.8,0.2,1.7,0.5,2.5,0.9l-1.2,2.8c-0.9-0.4-1.7-0.6-2.3-0.8
				c-0.6-0.1-1.2-0.2-1.8-0.2c-0.7,0-1.2,0.2-1.6,0.5c-0.4,0.3-0.5,0.7-0.5,1.3c0,0.3,0.1,0.6,0.2,0.8c0.1,0.2,0.4,0.5,0.7,0.7
				c0.3,0.2,1.1,0.6,2.3,1.2c1.6,0.8,2.7,1.5,3.3,2.3C388.7,315.4,389,316.3,389,317.5z"/>
			<path class="st2" d="M105.4,350.9v-17.1h3.6v14.1h6.9v3H105.4z"/>
			<path class="st2" d="M134.5,342.4c0,2.8-0.7,5-2.1,6.5c-1.4,1.5-3.4,2.3-6,2.3s-4.6-0.8-6-2.3c-1.4-1.5-2.1-3.7-2.1-6.5
				c0-2.8,0.7-5,2.1-6.5c1.4-1.5,3.4-2.3,6.1-2.3c2.6,0,4.6,0.8,6,2.3C133.8,337.4,134.5,339.5,134.5,342.4z M122,342.4
				c0,1.9,0.4,3.3,1.1,4.3c0.7,1,1.8,1.5,3.3,1.5c2.9,0,4.3-1.9,4.3-5.8c0-3.9-1.4-5.8-4.3-5.8c-1.4,0-2.5,0.5-3.3,1.5
				C122.4,339,122,340.5,122,342.4z"/>
			<path class="st2" d="M153.2,350.9h-4.6l-7.4-12.9H141c0.1,2.3,0.2,3.9,0.2,4.9v8H138v-17.1h4.6l7.4,12.8h0.1
				c-0.1-2.2-0.2-3.8-0.2-4.7v-8.1h3.3V350.9z"/>
			<path class="st2" d="M167.3,350.9h-9.8v-17.1h9.8v3h-6.2v3.8h5.8v3h-5.8v4.4h6.2V350.9z"/>
			<path class="st2" d="M170.9,350.9v-17.1h3.6v14.1h6.9v3H170.9z"/>
			<path class="st2" d="M189.7,340.9l3.6-7h3.9l-5.7,10.4v6.7h-3.6v-6.5l-5.7-10.6h3.9L189.7,340.9z"/>
			<path class="st2" d="M217.4,339.2c0,1.8-0.6,3.2-1.7,4.2c-1.1,1-2.8,1.5-4.9,1.5h-1.6v6.1h-3.6v-17.1h5.5c2.1,0,3.7,0.4,4.7,1.3
				C216.9,336.1,217.4,337.4,217.4,339.2z M209.2,341.9h1.2c1.1,0,1.9-0.2,2.5-0.7c0.6-0.4,0.8-1.1,0.8-1.9c0-0.8-0.2-1.5-0.7-1.9
				c-0.5-0.4-1.2-0.6-2.2-0.6h-1.6V341.9z"/>
			<path class="st2" d="M220.6,350.9v-17.1h3.6v14.1h6.9v3H220.6z"/>
			<path class="st2" d="M244.6,350.9l-1.2-4.1h-6.2l-1.2,4.1H232l6-17.2h4.4l6.1,17.2H244.6z M242.5,343.8c-1.1-3.7-1.8-5.8-1.9-6.3
				c-0.1-0.5-0.2-0.9-0.3-1.1c-0.3,1-1,3.5-2.2,7.4H242.5z"/>
			<path class="st2" d="M258,336.6c-1.4,0-2.4,0.5-3.2,1.5c-0.7,1-1.1,2.5-1.1,4.3c0,3.8,1.4,5.7,4.3,5.7c1.2,0,2.7-0.3,4.4-0.9v3
				c-1.4,0.6-3,0.9-4.7,0.9c-2.5,0-4.4-0.8-5.7-2.3c-1.3-1.5-2-3.7-2-6.5c0-1.8,0.3-3.3,1-4.7c0.6-1.3,1.6-2.4,2.8-3.1
				c1.2-0.7,2.6-1.1,4.3-1.1c1.7,0,3.3,0.4,5,1.2l-1.2,2.9c-0.6-0.3-1.3-0.6-1.9-0.8C259.2,336.7,258.6,336.6,258,336.6z"/>
			<path class="st2" d="M275.8,350.9H266v-17.1h9.8v3h-6.2v3.8h5.8v3h-5.8v4.4h6.2V350.9z"/>
			<path class="st2" d="M278.6,349.3c0-0.7,0.2-1.1,0.5-1.5c0.4-0.3,0.9-0.5,1.5-0.5c0.6,0,1.1,0.2,1.5,0.5c0.4,0.3,0.5,0.8,0.5,1.5
				c0,0.6-0.2,1.1-0.5,1.5c-0.4,0.4-0.9,0.5-1.5,0.5c-0.7,0-1.2-0.2-1.5-0.5C278.8,350.4,278.6,349.9,278.6,349.3z"/>
			<path class="st2" d="M285.4,349.3c0-0.7,0.2-1.1,0.5-1.5c0.4-0.3,0.9-0.5,1.5-0.5c0.6,0,1.1,0.2,1.5,0.5c0.4,0.3,0.5,0.8,0.5,1.5
				c0,0.6-0.2,1.1-0.5,1.5c-0.4,0.4-0.9,0.5-1.5,0.5c-0.7,0-1.2-0.2-1.5-0.5C285.6,350.4,285.4,349.9,285.4,349.3z"/>
			<path class="st2" d="M292.2,349.3c0-0.7,0.2-1.1,0.5-1.5c0.4-0.3,0.9-0.5,1.5-0.5c0.6,0,1.1,0.2,1.5,0.5c0.4,0.3,0.5,0.8,0.5,1.5
				c0,0.6-0.2,1.1-0.5,1.5c-0.4,0.4-0.9,0.5-1.5,0.5c-0.7,0-1.2-0.2-1.5-0.5C292.4,350.4,292.2,349.9,292.2,349.3z"/>
			<path class="st2" d="M312.7,350.9H309v-14.1h-4.6v-3h12.9v3h-4.6V350.9z"/>
			<path class="st2" d="M334,350.9h-3.6v-7.4h-6.8v7.4h-3.6v-17.1h3.6v6.7h6.8v-6.7h3.6V350.9z"/>
			<path class="st2" d="M348.7,350.9l-1.2-4.1h-6.2l-1.2,4.1h-3.9l6-17.2h4.4l6.1,17.2H348.7z M346.6,343.8
				c-1.1-3.7-1.8-5.8-1.9-6.3c-0.1-0.5-0.2-0.9-0.3-1.1c-0.3,1-1,3.5-2.2,7.4H346.6z"/>
			<path class="st2" d="M370,350.9h-4.6l-7.4-12.9h-0.1c0.1,2.3,0.2,3.9,0.2,4.9v8h-3.2v-17.1h4.6l7.4,12.8h0.1
				c-0.1-2.2-0.2-3.8-0.2-4.7v-8.1h3.3V350.9z"/>
			<path class="st2" d="M388,350.9h-4.1l-4.5-7.2l-1.5,1.1v6.1h-3.6v-17.1h3.6v7.8l1.4-2l4.6-5.8h4l-6,7.6L388,350.9z"/>
			<path class="st2" d="M400.3,346.2c0,1.5-0.6,2.8-1.7,3.6c-1.1,0.9-2.7,1.3-4.6,1.3c-1.8,0-3.4-0.3-4.8-1v-3.4
				c1.2,0.5,2.1,0.9,2.9,1.1c0.8,0.2,1.5,0.3,2.2,0.3c0.8,0,1.4-0.2,1.8-0.5c0.4-0.3,0.6-0.8,0.6-1.4c0-0.3-0.1-0.6-0.3-0.9
				c-0.2-0.3-0.5-0.5-0.8-0.8c-0.4-0.2-1.1-0.6-2.2-1.2c-1-0.5-1.8-1-2.4-1.4c-0.5-0.5-0.9-1-1.3-1.6c-0.3-0.6-0.5-1.3-0.5-2.1
				c0-1.5,0.5-2.7,1.5-3.6c1-0.9,2.4-1.3,4.3-1.3c0.9,0,1.7,0.1,2.5,0.3c0.8,0.2,1.7,0.5,2.5,0.9l-1.2,2.8c-0.9-0.4-1.7-0.6-2.3-0.8
				c-0.6-0.1-1.2-0.2-1.8-0.2c-0.7,0-1.2,0.2-1.6,0.5c-0.4,0.3-0.5,0.7-0.5,1.3c0,0.3,0.1,0.6,0.2,0.8c0.1,0.2,0.4,0.5,0.7,0.7
				c0.3,0.2,1.1,0.6,2.3,1.2c1.6,0.8,2.7,1.5,3.3,2.3C400,344.1,400.3,345.1,400.3,346.2z"/>
			<path class="st2" d="M402.6,349.3c0-0.7,0.2-1.1,0.5-1.5c0.4-0.3,0.9-0.5,1.5-0.5c0.6,0,1.1,0.2,1.5,0.5c0.4,0.3,0.5,0.8,0.5,1.5
				c0,0.6-0.2,1.1-0.5,1.5c-0.4,0.4-0.9,0.5-1.5,0.5c-0.7,0-1.2-0.2-1.5-0.5C402.8,350.4,402.6,349.9,402.6,349.3z"/>
			<path class="st2" d="M409.4,349.3c0-0.7,0.2-1.1,0.5-1.5c0.4-0.3,0.9-0.5,1.5-0.5c0.6,0,1.1,0.2,1.5,0.5c0.4,0.3,0.5,0.8,0.5,1.5
				c0,0.6-0.2,1.1-0.5,1.5c-0.4,0.4-0.9,0.5-1.5,0.5c-0.7,0-1.2-0.2-1.5-0.5C409.6,350.4,409.4,349.9,409.4,349.3z"/>
			<path class="st2" d="M416.2,349.3c0-0.7,0.2-1.1,0.5-1.5c0.4-0.3,0.9-0.5,1.5-0.5c0.6,0,1.1,0.2,1.5,0.5c0.4,0.3,0.5,0.8,0.5,1.5
				c0,0.6-0.2,1.1-0.5,1.5c-0.4,0.4-0.9,0.5-1.5,0.5c-0.7,0-1.2-0.2-1.5-0.5C416.4,350.4,416.2,349.9,416.2,349.3z"/>
		</g>
	</g>
</g>
</svg>
