<?xml version="1.0" encoding="utf-8"?>
<!-- Generator: Adobe Illustrator 25.0.1, SVG Export Plug-In . SVG Version: 6.00 Build 0)  -->
<svg version="1.1" xmlns="http://www.w3.org/2000/svg" xmlns:xlink="http://www.w3.org/1999/xlink" x="0px" y="0px"
	 viewBox="0 0 468 137" style="enable-background:new 0 0 468 137;" xml:space="preserve">
<style type="text/css">
	.st0{fill:#22242B;}
	.st1{enable-background:new    ;}
	.st2{fill:#FFFFFF;}
	.st3{fill:none;stroke:#FFFFFF;stroke-width:3;stroke-miterlimit:10;}
	.st4{fill:#21232B;}
	.st5{fill:#75C9F9;}
	.st6{fill:none;stroke:#FFFFFF;stroke-width:5;stroke-miterlimit:10;}
	.st7{fill:none;stroke:#FFFFFF;stroke-width:5;stroke-linecap:round;stroke-miterlimit:10;}
	.st8{fill:#606060;}
	.st9{fill:#202828;stroke:#FFFFFF;stroke-width:3;stroke-linecap:round;stroke-linejoin:round;stroke-miterlimit:10;}
	.st10{fill:#21232B;stroke:#2BD2F9;stroke-width:2;stroke-miterlimit:10;}
	.st11{display:none;}
	.st12{display:inline;}
	.st13{fill:#76CBF9;}
	.st14{fill:none;stroke:#7AC7F0;stroke-width:2;stroke-linecap:round;stroke-linejoin:round;stroke-miterlimit:10;}
	.st15{fill:none;stroke:#7AC7F0;stroke-width:2;stroke-miterlimit:10;}
	.st16{fill:none;stroke:#FFFFFF;stroke-width:3;stroke-linecap:round;stroke-linejoin:round;stroke-miterlimit:10;}
	.st17{fill:#0AEDE6;}
	.st18{opacity:0.2;fill:#FFFFFF;}
	.st19{fill:none;stroke:#FFFFFF;stroke-width:4;stroke-miterlimit:10;}
	.st20{fill:none;stroke:#FFFFFF;stroke-width:2;stroke-miterlimit:10;}
	.st21{fill:#22242B;stroke:#FFFFFF;stroke-width:3;stroke-miterlimit:10;}
	.st22{opacity:0.25;fill:#75C9F9;}
	.st23{fill:none;stroke:#7AC7F0;stroke-width:5;stroke-linecap:round;stroke-linejoin:round;stroke-miterlimit:10;}
</style>
<g id="Слой_11">
</g>
<g id="Basket">
</g>
<g id="New_Collection">
</g>
<g id="Menu">
</g>
<g id="Market">
</g>
<g id="Login">
	<g id="_x5B_YOUR_IMAGE_HERE_x5D_">
	</g>
</g>
<g id="Слой_8">
	<g id="_x5B_YOUR_TEXT_HERE_x5D__1_">
	</g>
</g>
<g id="Слой_10">
</g>
<g id="Слой_16">
</g>
<g id="Слой_17">
</g>
<g id="Слой_14">
</g>
<g id="Слой_15">
</g>
<g id="Слой_19">
</g>
<g id="Слой_13">
</g>
<g id="Слой_20">
</g>
<g id="Слой_12">
</g>
<g id="Слой_21">
</g>
<g id="Слой_22">
</g>
<g id="Слой_23">
</g>
<g id="Слой_24">
</g>
<g id="Слой_25">
</g>
<g id="Слой_26">
</g>
<g id="Слой_18">
	<g>
		<path class="st2" d="M140,81.6h-8.7l-14-24.3h-0.2c0.3,4.3,0.4,7.4,0.4,9.2v15.1h-6.1V49.5h8.6l14,24.1h0.2
			c-0.2-4.2-0.3-7.1-0.3-8.9V49.5h6.1V81.6z"/>
		<path class="st2" d="M166.6,81.6h-18.5V49.5h18.5V55h-11.7v7.1h10.9v5.6h-10.9V76h11.7V81.6z"/>
		<path class="st2" d="M199.3,81.6h-7.8L184,69.4l-7.5,12.2h-7.3L179.9,65l-10-15.6h7.5l6.9,11.6l6.8-11.6h7.3l-10.1,15.9
			L199.3,81.6z"/>
		<path class="st2" d="M215.7,81.6h-6.8V55.1h-8.7v-5.7h24.3v5.7h-8.7V81.6z"/>
		<path class="st2" d="M241.1,81.6V49.5h6.8V76h13v5.6H241.1z"/>
		<path class="st2" d="M285,81.6h-18.5V49.5H285V55h-11.7v7.1h10.9v5.6h-10.9V76H285V81.6z"/>
		<path class="st2" d="M310,49.5h6.9L306,81.6h-7.4l-10.9-32.1h6.9l6,19.1c0.3,1.1,0.7,2.4,1,3.9c0.4,1.5,0.6,2.5,0.7,3.1
			c0.2-1.3,0.7-3.7,1.6-7.1L310,49.5z"/>
		<path class="st2" d="M339.4,81.6h-18.5V49.5h18.5V55h-11.7v7.1h10.9v5.6h-10.9V76h11.7V81.6z"/>
		<path class="st2" d="M346.1,81.6V49.5h6.8V76h13v5.6H346.1z"/>
	</g>
	<path class="st21" d="M423.2,110.5H51.8c-15.1,0-27.3-12.2-27.3-27.3V58.8c0-15.1,12.2-27.3,27.3-27.3h371.5
		c15.1,0,27.3,12.2,27.3,27.3v24.5C450.5,98.3,438.3,110.5,423.2,110.5z"/>
	<g>
		<path class="st2" d="M220.8,81.4c0-1.2,0.3-2.2,1-2.8s1.6-0.9,2.9-0.9c1.2,0,2.2,0.3,2.8,1c0.7,0.6,1,1.6,1,2.8
			c0,1.2-0.3,2.1-1,2.7s-1.6,1-2.8,1c-1.2,0-2.2-0.3-2.9-1C221.2,83.6,220.8,82.6,220.8,81.4z"/>
		<path class="st2" d="M233.7,81.4c0-1.2,0.3-2.2,1-2.8s1.6-0.9,2.9-0.9c1.2,0,2.2,0.3,2.8,1c0.7,0.6,1,1.6,1,2.8
			c0,1.2-0.3,2.1-1,2.7s-1.6,1-2.8,1c-1.2,0-2.2-0.3-2.9-1C234,83.6,233.7,82.6,233.7,81.4z"/>
		<path class="st2" d="M246.5,81.4c0-1.2,0.3-2.2,1-2.8s1.6-0.9,2.9-0.9c1.2,0,2.2,0.3,2.8,1c0.7,0.6,1,1.6,1,2.8
			c0,1.2-0.3,2.1-1,2.7s-1.6,1-2.8,1c-1.2,0-2.2-0.3-2.9-1C246.8,83.6,246.5,82.6,246.5,81.4z"/>
	</g>
</g>
</svg>
