<?xml version="1.0" encoding="utf-8"?>
<!-- Generator: Adobe Illustrator 25.0.1, SVG Export Plug-In . SVG Version: 6.00 Build 0)  -->
<svg version="1.1" xmlns="http://www.w3.org/2000/svg" xmlns:xlink="http://www.w3.org/1999/xlink" x="0px" y="0px"
	 viewBox="0 0 468 137" style="enable-background:new 0 0 468 137;" xml:space="preserve">
<style type="text/css">
	.st0{fill:#22242B;}
	.st1{enable-background:new    ;}
	.st2{fill:#FFFFFF;}
	.st3{fill:none;stroke:#FFFFFF;stroke-width:3;stroke-miterlimit:10;}
	.st4{opacity:0.2;fill:#F7A9D3;}
	.st5{fill:none;stroke:#FFFFFF;stroke-width:4;stroke-miterlimit:10;}
	.st6{fill:#21232B;}
	.st7{fill:#75C9F9;}
	.st8{fill:none;stroke:#FFFFFF;stroke-width:5;stroke-miterlimit:10;}
	.st9{fill:none;stroke:#FFFFFF;stroke-width:5;stroke-linecap:round;stroke-miterlimit:10;}
	.st10{fill:#606060;}
	.st11{fill:#202828;stroke:#FFFFFF;stroke-width:3;stroke-linecap:round;stroke-linejoin:round;stroke-miterlimit:10;}
	.st12{fill:#21232B;stroke:#2BD2F9;stroke-width:2;stroke-miterlimit:10;}
	.st13{display:none;}
	.st14{display:inline;}
	.st15{fill:#76CBF9;}
	.st16{fill:none;stroke:#7AC7F0;stroke-width:2;stroke-linecap:round;stroke-linejoin:round;stroke-miterlimit:10;}
	.st17{fill:none;stroke:#7AC7F0;stroke-width:2;stroke-miterlimit:10;}
	.st18{fill:none;stroke:#FFFFFF;stroke-width:3;stroke-linecap:round;stroke-linejoin:round;stroke-miterlimit:10;}
	.st19{fill:#0AEDE6;}
	.st20{fill:none;stroke:#FFFFFF;stroke-width:2;stroke-miterlimit:10;}
	.st21{fill:#22242B;stroke:#FFFFFF;stroke-width:3;stroke-miterlimit:10;}
	.st22{opacity:0.25;fill:#75C9F9;}
	.st23{opacity:0.2;fill:#FFFFFF;}
	.st24{fill:none;stroke:#7AC7F0;stroke-width:5;stroke-linecap:round;stroke-linejoin:round;stroke-miterlimit:10;}
</style>
<g id="Слой_11">
</g>
<g id="Basket">
</g>
<g id="New_Collection">
</g>
<g id="Menu">
</g>
<g id="Market">
</g>
<g id="Login">
	<g id="_x5B_YOUR_IMAGE_HERE_x5D_">
	</g>
</g>
<g id="Слой_8">
	<g id="_x5B_YOUR_TEXT_HERE_x5D__1_">
	</g>
</g>
<g id="Слой_10">
</g>
<g id="Слой_16">
</g>
<g id="Слой_17">
</g>
<g id="Слой_14">
	<path class="st21" d="M420.2,107.5H48.8c-15.1,0-27.3-12.2-27.3-27.3V55.8c0-15.1,12.2-27.3,27.3-27.3h371.5
		c15.1,0,27.3,12.2,27.3,27.3v24.5C447.5,95.3,435.3,107.5,420.2,107.5z"/>
</g>
<g id="Слой_15">
</g>
<g id="Слой_19">
</g>
<g id="Слой_13">
	<g>
		<path class="st2" d="M66.9,49.5h10c4.6,0,7.9,0.6,9.9,1.9c2.1,1.3,3.1,3.4,3.1,6.2c0,1.9-0.5,3.5-1.4,4.7c-0.9,1.2-2.1,2-3.6,2.2
			v0.2c2,0.5,3.5,1.3,4.4,2.5c0.9,1.2,1.4,2.9,1.4,5c0,2.9-1.1,5.2-3.2,6.9c-2.1,1.6-5,2.5-8.6,2.5h-12V49.5z M73.7,62.2h4
			c1.8,0,3.2-0.3,4-0.9c0.8-0.6,1.2-1.5,1.2-2.8c0-1.2-0.5-2.1-1.4-2.6c-0.9-0.5-2.3-0.8-4.3-0.8h-3.6V62.2z M73.7,67.6V76h4.4
			c1.9,0,3.3-0.4,4.2-1.1c0.9-0.7,1.3-1.8,1.3-3.3c0-2.7-1.9-4-5.7-4H73.7z"/>
		<path class="st2" d="M116.8,81.6l-2.3-7.6h-11.7l-2.3,7.6h-7.3l11.3-32.3h8.3l11.4,32.3H116.8z M112.8,68.2
			c-2.2-6.9-3.4-10.8-3.6-11.8c-0.3-0.9-0.5-1.6-0.6-2.2c-0.5,1.9-1.9,6.5-4.2,13.9H112.8z"/>
		<path class="st2" d="M141.8,54.7c-2.6,0-4.5,1-6,2.9c-1.4,1.9-2.1,4.6-2.1,8.1c0,7.2,2.7,10.7,8.1,10.7c2.3,0,5-0.6,8.2-1.7v5.7
			c-2.6,1.1-5.6,1.6-8.8,1.6c-4.7,0-8.2-1.4-10.7-4.3c-2.5-2.8-3.7-6.9-3.7-12.2c0-3.3,0.6-6.3,1.8-8.8s3-4.4,5.2-5.8
			c2.3-1.3,4.9-2,8-2c3.1,0,6.3,0.8,9.4,2.3l-2.2,5.5c-1.2-0.6-2.4-1.1-3.6-1.5S143,54.7,141.8,54.7z"/>
		<path class="st2" d="M182.7,81.6h-7.7l-8.4-13.5l-2.9,2.1v11.5h-6.8V49.5h6.8v14.7l2.7-3.8l8.7-10.9h7.6l-11.2,14.2L182.7,81.6z"
			/>
		<path class="st2" d="M210.8,81.6H204V55.1h-8.7v-5.7h24.3v5.7h-8.7V81.6z"/>
		<path class="st2" d="M253.6,65.5c0,5.3-1.3,9.4-4,12.3c-2.6,2.9-6.4,4.3-11.3,4.3s-8.7-1.4-11.3-4.3c-2.6-2.9-4-7-4-12.3
			c0-5.3,1.3-9.4,4-12.2c2.6-2.8,6.4-4.2,11.4-4.2s8.7,1.4,11.3,4.3C252.3,56.1,253.6,60.2,253.6,65.5z M230.2,65.5
			c0,3.6,0.7,6.3,2,8.1s3.4,2.7,6.1,2.7c5.4,0,8.2-3.6,8.2-10.8c0-7.2-2.7-10.9-8.1-10.9c-2.7,0-4.8,0.9-6.1,2.7
			C230.9,59.2,230.2,61.9,230.2,65.5z"/>
		<path class="st2" d="M285.6,81.6l-7.7-25.2h-0.2c0.3,5.1,0.4,8.5,0.4,10.3v14.9H272V49.5h9.3l7.6,24.6h0.1l8.1-24.6h9.3v32.1H300
			V66.4c0-0.7,0-1.5,0-2.5c0-0.9,0.1-3.4,0.3-7.5h-0.2l-8.3,25.2H285.6z"/>
		<path class="st2" d="M332.9,81.6h-18.5V49.5h18.5V55h-11.7v7.1h10.9v5.6h-10.9V76h11.7V81.6z"/>
		<path class="st2" d="M368.1,81.6h-8.7l-14-24.3h-0.2c0.3,4.3,0.4,7.4,0.4,9.2v15.1h-6.1V49.5h8.6l14,24.1h0.2
			c-0.2-4.2-0.3-7.1-0.3-8.9V49.5h6.1V81.6z"/>
		<path class="st2" d="M402.3,49.5v20.8c0,2.4-0.5,4.5-1.6,6.2c-1.1,1.8-2.6,3.2-4.6,4.1c-2,1-4.4,1.4-7.1,1.4
			c-4.1,0-7.3-1.1-9.6-3.2s-3.4-5-3.4-8.7V49.5h6.8v19.7c0,2.5,0.5,4.3,1.5,5.4c1,1.2,2.6,1.7,4.9,1.7c2.2,0,3.8-0.6,4.8-1.7
			c1-1.2,1.5-3,1.5-5.5V49.5H402.3z"/>
	</g>
</g>
<g id="Слой_20">
</g>
<g id="Слой_12">
</g>
<g id="Слой_21">
</g>
<g id="Слой_22">
</g>
<g id="Слой_23">
</g>
<g id="Слой_24">
</g>
<g id="Слой_25">
</g>
<g id="Слой_26">
</g>
<g id="Слой_18">
</g>
</svg>
