<?xml version="1.0" encoding="utf-8"?>
<!-- Generator: Adobe Illustrator 25.0.1, SVG Export Plug-In . SVG Version: 6.00 Build 0)  -->
<svg version="1.1" xmlns="http://www.w3.org/2000/svg" xmlns:xlink="http://www.w3.org/1999/xlink" x="0px" y="0px"
	 viewBox="0 0 679 405" style="enable-background:new 0 0 679 405;" xml:space="preserve">
<style type="text/css">
	.st0{fill:#22242B;}
	.st1{enable-background:new    ;}
	.st2{fill:#FFFFFF;}
	.st3{fill:none;stroke:#FFFFFF;stroke-width:3;stroke-miterlimit:10;}
	.st4{opacity:0.2;fill:#F7A9D3;}
	.st5{fill:none;stroke:#FFFFFF;stroke-width:4;stroke-miterlimit:10;}
	.st6{fill:#21232B;}
	.st7{fill:#75C9F9;}
	.st8{fill:none;stroke:#FFFFFF;stroke-width:5;stroke-miterlimit:10;}
	.st9{fill:none;stroke:#FFFFFF;stroke-width:5;stroke-linecap:round;stroke-miterlimit:10;}
	.st10{fill:#606060;}
	.st11{fill:#202828;stroke:#FFFFFF;stroke-width:3;stroke-linecap:round;stroke-linejoin:round;stroke-miterlimit:10;}
	.st12{fill:#21232B;stroke:#2BD2F9;stroke-width:2;stroke-miterlimit:10;}
	.st13{display:none;}
	.st14{display:inline;}
	.st15{fill:#76CBF9;}
	.st16{fill:none;stroke:#7AC7F0;stroke-width:2;stroke-linecap:round;stroke-linejoin:round;stroke-miterlimit:10;}
	.st17{fill:none;stroke:#7AC7F0;stroke-width:2;stroke-miterlimit:10;}
	.st18{fill:none;stroke:#FFFFFF;stroke-width:3;stroke-linecap:round;stroke-linejoin:round;stroke-miterlimit:10;}
	.st19{fill:#0AEDE6;}
	.st20{fill:none;stroke:#FFFFFF;stroke-width:2;stroke-miterlimit:10;}
	.st21{fill:#22242B;stroke:#FFFFFF;stroke-width:3;stroke-miterlimit:10;}
	.st22{opacity:0.25;fill:#75C9F9;}
	.st23{opacity:0.2;fill:#FFFFFF;}
	.st24{fill:none;stroke:#7AC7F0;stroke-width:5;stroke-linecap:round;stroke-linejoin:round;stroke-miterlimit:10;}
</style>
<g id="Слой_11">
</g>
<g id="Basket">
</g>
<g id="New_Collection">
</g>
<g id="Menu">
</g>
<g id="Market">
</g>
<g id="Login">
	<g id="_x5B_YOUR_IMAGE_HERE_x5D_">
	</g>
</g>
<g id="Слой_8">
	<g id="_x5B_YOUR_TEXT_HERE_x5D__1_">
		<g>
			<path class="st2" d="M145.7,116c1.6-3.5,4-6.2,7.2-8.2c3.2-2,6.7-3.1,10.5-3.1h75.5l-4.7,11.5c-1.5,3.7-3.9,6.7-7.3,8.9
				c-3.3,2.2-7,3.3-11,3.3h-47c-0.9,0-1.6,0.2-2.3,0.7c-0.7,0.5-1.3,1-1.8,1.6c-0.2,0.4-0.8,1.8-1.7,4.1c-0.4,1-1,2.3-1.6,3.9
				c-0.6,1.6-1.4,3.5-2.4,5.8c-0.9,2.3-2.1,5-3.3,8.1c-1.3,3.1-2.7,6.7-4.4,10.7h32.5c1.8,0,3.5-0.5,5.1-1.6c1.6-1,2.7-2.4,3.4-4.1
				c0.1-0.4,0.3-0.7,0.4-1.1c0.2-0.3,0.3-0.7,0.4-1H178c1.3-3.1,2.3-5.8,3.3-8.1c0.9-2.3,1.7-4.1,2.3-5.7c0.7-1.8,1.8-3.2,3.3-4.2
				c1.5-1,3.2-1.6,5-1.6h34l-15.7,38.6c-1.5,3.8-3.9,6.8-7.2,9c-3.3,2.2-7,3.3-11.1,3.3h-75.2c5.4-13.3,10.2-25.1,14.4-35.5
				L145.7,116z"/>
			<path class="st2" d="M217.8,187.2l28.6-70.3c1.5-3.7,3.9-6.7,7.2-8.9c3.3-2.2,6.9-3.3,10.9-3.3h75.4l-28.5,70.1
				c-1.5,3.8-3.9,6.8-7.3,9c-3.3,2.2-7,3.3-11,3.3h-12l12.8-31.5h-38.2l-10.6,25.8c-0.7,1.7-1.8,3.1-3.3,4.1c-1.5,1-3.3,1.6-5.1,1.6
				H217.8z M300.2,136.2c1.1,0,1.9-0.5,2.4-1.6l2.5-6.1h-36.4c-1.1,0-1.9,0.5-2.4,1.6l-2.5,6.1H300.2z"/>
			<path class="st2" d="M347.5,116.9c0.8-1.8,1.7-3.5,3-5c1.2-1.5,2.6-2.8,4.2-3.9s3.3-1.9,5.2-2.5c1.9-0.6,3.8-0.8,5.7-0.8h95.6
				l-28.6,70.1c-1.5,3.8-3.9,6.8-7.3,9c-3.3,2.2-7,3.3-11,3.3h-12l23.8-58.7h-17.2l-21.5,53.1c-0.7,1.7-1.8,3.1-3.4,4.1
				c-1.6,1-3.3,1.6-5.1,1.6h-19.1l23.8-58.7h-13.9c-1.1,0-1.9,0.5-2.4,1.6l-21,51.5c-0.7,1.7-1.8,3.1-3.3,4.1c-1.5,1-3.2,1.6-5,1.6
				h-19L347.5,116.9z"/>
			<path class="st2" d="M440.1,187.2c1.6-4.1,3.1-7.8,4.5-11.1c1.4-3.3,2.9-7.1,4.6-11.4c1.7-4.2,3.5-8.6,5.3-13.1
				c1.8-4.5,3.6-8.8,5.3-13.1c1.7-4.2,3.3-8,4.6-11.4c1.4-3.4,2.9-7.1,4.6-11.2c1.6-3.5,4-6.2,7.2-8.2c3.2-2,6.7-3.1,10.5-3.1h75.5
				l-4.7,11.5c-1.5,3.7-3.9,6.7-7.3,8.9c-3.3,2.2-7,3.3-11,3.3h-47c-2.1,0-3.6,1-4.5,3l-2,4.7H526l-5.7,13.8
				c-0.7,1.8-1.8,3.2-3.3,4.2c-1.5,1-3.3,1.6-5.1,1.6h-30.7c-2.1,0-3.6,1-4.5,3l-1.9,4.7h63.5l-4.6,11.4c-1.5,3.8-3.9,6.8-7.3,9
				c-3.3,2.2-7,3.3-11,3.3H440.1z"/>
			<path class="st2" d="M154.6,230.2c1.5-3.8,3.9-6.8,7.3-9c3.3-2.2,7-3.3,11-3.3h75.3l-28.5,70.1c-1.5,3.8-3.9,6.8-7.3,9
				c-3.3,2.2-7,3.3-11,3.3h-75.3L154.6,230.2z M160.6,276.5h35.5c1,0,1.9-0.3,2.7-0.8c0.8-0.6,1.4-1.3,1.7-2.2l13.1-31.9h-35.5
				c-2.1,0-3.6,1-4.4,2.9L160.6,276.5z"/>
			<path class="st2" d="M227.2,300.1l28.4-69.9c1.5-3.8,3.9-6.8,7.3-9c3.3-2.2,7-3.3,11-3.3h12.1l-23.7,58.5h3.5
				c1.6,0,3.2-0.4,4.7-1.1s2.8-1.7,3.9-3l44.7-54.5h30.4l-60.9,74.9c-1.8,2.3-4.1,4.1-6.7,5.4c-2.7,1.3-5.5,1.9-8.5,1.9H227.2z"/>
			<path class="st2" d="M328.3,300.3c1.6-4.1,3.1-7.8,4.5-11.1c1.4-3.3,2.9-7.1,4.6-11.4c1.7-4.2,3.5-8.6,5.3-13.1s3.6-8.8,5.3-13.1
				s3.3-8,4.6-11.4s2.9-7.1,4.6-11.2c1.6-3.5,4-6.2,7.2-8.2c3.2-2,6.7-3.1,10.5-3.1h75.5l-4.7,11.5c-1.5,3.7-3.9,6.7-7.3,8.9
				c-3.3,2.2-7,3.3-11,3.3h-47c-2.1,0-3.6,1-4.5,3l-2,4.7h40.2l-5.7,13.8c-0.7,1.8-1.8,3.2-3.3,4.2c-1.5,1-3.3,1.6-5.1,1.6h-30.7
				c-2.1,0-3.6,1-4.5,3l-1.9,4.7h63.5l-4.6,11.4c-1.5,3.8-3.9,6.8-7.3,9c-3.3,2.2-7,3.3-11,3.3H328.3z"/>
			<path class="st2" d="M459,230.2c1.5-3.8,3.9-6.8,7.3-9c3.3-2.2,7-3.3,11-3.3h75.6L534,264.4c-1.5,3.8-3.9,6.8-7.3,9
				c-3.3,2.2-7,3.3-11,3.3h-4.9l9.6,23.6h-25.4l-9.5-23.6h-19.7l-7.4,17.9c-0.7,1.7-1.8,3.1-3.3,4.1c-1.5,1-3.2,1.6-5,1.6h-19.2
				L459,230.2z M475.4,252.8H511c0.7,0,1.3-0.2,1.9-0.6c0.6-0.4,1-0.9,1.3-1.5l3.7-9h-35.5c-1.6,0-2.7,0.7-3.3,2.2L475.4,252.8z"/>
		</g>
	</g>
</g>
<g id="Слой_10">
</g>
<g id="Слой_16">
</g>
<g id="Слой_17">
</g>
<g id="Слой_14">
</g>
<g id="Слой_15">
</g>
<g id="Слой_19">
</g>
<g id="Слой_13">
</g>
<g id="Слой_20">
</g>
<g id="Слой_12">
</g>
<g id="Слой_21">
</g>
<g id="Слой_22">
</g>
<g id="Слой_23">
</g>
<g id="Слой_24">
</g>
<g id="Слой_25">
</g>
<g id="Слой_26">
</g>
<g id="Слой_18">
</g>
</svg>
