<?xml version="1.0" encoding="utf-8"?>
<!-- Generator: Adobe Illustrator 25.0.1, SVG Export Plug-In . SVG Version: 6.00 Build 0)  -->
<svg version="1.1" xmlns="http://www.w3.org/2000/svg" xmlns:xlink="http://www.w3.org/1999/xlink" x="0px" y="0px"
	 viewBox="0 0 468 137" style="enable-background:new 0 0 468 137;" xml:space="preserve">
<style type="text/css">
	.st0{fill:#22242B;}
	.st1{enable-background:new    ;}
	.st2{fill:#FFFFFF;}
	.st3{fill:none;stroke:#FFFFFF;stroke-width:3;stroke-miterlimit:10;}
	.st4{opacity:0.2;fill:#F7A9D3;}
	.st5{fill:none;stroke:#FFFFFF;stroke-width:4;stroke-miterlimit:10;}
	.st6{fill:#21232B;}
	.st7{fill:#75C9F9;}
	.st8{fill:none;stroke:#FFFFFF;stroke-width:5;stroke-miterlimit:10;}
	.st9{fill:none;stroke:#FFFFFF;stroke-width:5;stroke-linecap:round;stroke-miterlimit:10;}
	.st10{fill:#606060;}
	.st11{fill:#202828;stroke:#FFFFFF;stroke-width:3;stroke-linecap:round;stroke-linejoin:round;stroke-miterlimit:10;}
	.st12{fill:#21232B;stroke:#2BD2F9;stroke-width:2;stroke-miterlimit:10;}
	.st13{display:none;}
	.st14{display:inline;}
	.st15{fill:#76CBF9;}
	.st16{fill:none;stroke:#7AC7F0;stroke-width:2;stroke-linecap:round;stroke-linejoin:round;stroke-miterlimit:10;}
	.st17{fill:none;stroke:#7AC7F0;stroke-width:2;stroke-miterlimit:10;}
	.st18{fill:none;stroke:#FFFFFF;stroke-width:3;stroke-linecap:round;stroke-linejoin:round;stroke-miterlimit:10;}
	.st19{fill:#0AEDE6;}
	.st20{fill:none;stroke:#FFFFFF;stroke-width:2;stroke-miterlimit:10;}
	.st21{fill:#22242B;stroke:#FFFFFF;stroke-width:3;stroke-miterlimit:10;}
	.st22{opacity:0.25;fill:#75C9F9;}
	.st23{opacity:0.2;fill:#FFFFFF;}
	.st24{fill:none;stroke:#7AC7F0;stroke-width:5;stroke-linecap:round;stroke-linejoin:round;stroke-miterlimit:10;}
</style>
<g id="Слой_11">
</g>
<g id="Basket">
</g>
<g id="New_Collection">
</g>
<g id="Menu">
</g>
<g id="Market">
</g>
<g id="Login">
	<g id="_x5B_YOUR_IMAGE_HERE_x5D_">
	</g>
</g>
<g id="Слой_8">
	<g id="_x5B_YOUR_TEXT_HERE_x5D__1_">
	</g>
</g>
<g id="Слой_10">
</g>
<g id="Слой_16">
</g>
<g id="Слой_17">
</g>
<g id="Слой_14">
	<path class="st21" d="M419.7,107.5H48.3C33.2,107.5,21,95.3,21,80.2V55.8c0-15.1,12.2-27.3,27.3-27.3h371.5
		c15.1,0,27.3,12.2,27.3,27.3v24.5C447,95.3,434.8,107.5,419.7,107.5z"/>
</g>
<g id="Слой_15">
</g>
<g id="Слой_19">
</g>
<g id="Слой_13">
	<g>
		<path class="st2" d="M124.9,59.5c0,3.5-1.1,6.1-3.2,7.9c-2.2,1.8-5.2,2.7-9.2,2.7h-2.9v11.4h-6.8V49.5H113c3.9,0,6.9,0.8,8.9,2.5
			C123.9,53.7,124.9,56.2,124.9,59.5z M109.5,64.6h2.2c2.1,0,3.7-0.4,4.7-1.2s1.6-2,1.6-3.6c0-1.6-0.4-2.8-1.3-3.5
			c-0.9-0.8-2.2-1.1-4.1-1.1h-3.1V64.6z"/>
		<path class="st2" d="M131,81.6V49.5h6.8V76h13v5.6H131z"/>
		<path class="st2" d="M176.1,81.6l-2.3-7.6H162l-2.3,7.6h-7.3l11.3-32.3h8.3l11.4,32.3H176.1z M172.1,68.2
			c-2.2-6.9-3.4-10.8-3.6-11.8c-0.3-0.9-0.5-1.6-0.6-2.2c-0.5,1.9-1.9,6.5-4.2,13.9H172.1z"/>
		<path class="st2" d="M197.4,62.7l6.7-13.2h7.3l-10.7,19.6v12.5h-6.8V69.3l-10.7-19.8h7.4L197.4,62.7z"/>
		<path class="st2" d="M246.9,81.6l-2.3-7.6h-11.7l-2.3,7.6h-7.3l11.3-32.3h8.3l11.4,32.3H246.9z M242.9,68.2
			c-2.2-6.9-3.4-10.8-3.6-11.8c-0.3-0.9-0.5-1.6-0.6-2.2c-0.5,1.9-1.9,6.5-4.2,13.9H242.9z"/>
		<path class="st2" d="M270.5,63.6h12.7v16.7c-2.1,0.7-4,1.1-5.8,1.4c-1.8,0.3-3.7,0.4-5.6,0.4c-4.8,0-8.6-1.4-11.1-4.3
			c-2.6-2.8-3.8-6.9-3.8-12.3c0-5.2,1.5-9.2,4.4-12.1c3-2.9,7.1-4.4,12.3-4.4c3.3,0,6.5,0.7,9.5,2l-2.3,5.4
			c-2.3-1.2-4.8-1.8-7.3-1.8c-2.9,0-5.3,1-7.1,3s-2.7,4.6-2.7,8c0,3.5,0.7,6.1,2.1,8c1.4,1.8,3.5,2.8,6.2,2.8c1.4,0,2.9-0.1,4.3-0.4
			v-6.7h-6.1V63.6z"/>
		<path class="st2" d="M310.5,81.6l-2.3-7.6h-11.7l-2.3,7.6h-7.3l11.3-32.3h8.3l11.4,32.3H310.5z M306.6,68.2
			c-2.2-6.9-3.4-10.8-3.6-11.8c-0.3-0.9-0.5-1.6-0.6-2.2c-0.5,1.9-1.9,6.5-4.2,13.9H306.6z"/>
		<path class="st2" d="M321.9,81.6V49.5h6.8v32.1H321.9z"/>
		<path class="st2" d="M365.3,81.6h-8.7l-14-24.3h-0.2c0.3,4.3,0.4,7.4,0.4,9.2v15.1h-6.1V49.5h8.6l14,24.1h0.2
			c-0.2-4.2-0.3-7.1-0.3-8.9V49.5h6.1V81.6z"/>
	</g>
</g>
<g id="Слой_20">
</g>
<g id="Слой_12">
</g>
<g id="Слой_21">
</g>
<g id="Слой_22">
</g>
<g id="Слой_23">
</g>
<g id="Слой_24">
</g>
<g id="Слой_25">
</g>
<g id="Слой_26">
</g>
<g id="Слой_18">
</g>
</svg>
